<?xml version="1.0" standalone="no"?>
<!DOCTYPE svg PUBLIC "-//W3C//DTD SVG 1.1//EN" "http://www.w3.org/Graphics/SVG/1.1/DTD/svg11.dtd">
<svg xmlns="http://www.w3.org/2000/svg">
<metadata>Copyright (C) 2017 by original authors @ fontello.com</metadata>
<defs>
<font id="icons" horiz-adv-x="1000" >
<font-face font-family="icons" font-weight="400" font-stretch="normal" units-per-em="1000" ascent="850" descent="-150" />
<missing-glyph horiz-adv-x="1000" />
<glyph glyph-name="checkbox" unicode="&#xe800;" d="M889 739v-778h-778v778h778m0 111h-778c-61 0-111-50-111-111v-778c0-61 50-111 111-111h778c61 0 111 50 111 111v778c0 61-50 111-111 111l0 0z" horiz-adv-x="1000" />

<glyph glyph-name="checkbox-checked" unicode="&#xe801;" d="M272 456l-78-78 250-250 556 555-78 78-478-478-172 173z m617-495h-778v778h556v111h-556c-61 0-111-50-111-111v-778c0-61 50-111 111-111h778c61 0 111 50 111 111v445h-111v-445z" horiz-adv-x="1000" />

<glyph glyph-name="radio" unicode="&#xe802;" d="M500 850c-275 0-500-225-500-500s225-500 500-500 500 225 500 500-225 500-500 500z m0-900c-220 0-400 180-400 400s180 400 400 400 400-180 400-400-180-400-400-400z" horiz-adv-x="1000" />

<glyph glyph-name="radio-checked" unicode="&#xe803;" d="M500 600c-140 0-250-110-250-250 0-140 110-250 250-250 140 0 250 110 250 250 0 140-110 250-250 250z m0 250c-275 0-500-225-500-500s225-500 500-500 500 225 500 500-225 500-500 500z m0-900c-220 0-400 180-400 400s180 400 400 400 400-180 400-400-180-400-400-400z" horiz-adv-x="1000" />

<glyph glyph-name="info-circled" unicode="&#xe804;" d="M571 82v89q0 8-5 13t-12 5h-54v286q0 8-5 13t-13 5h-178q-8 0-13-5t-5-13v-89q0-8 5-13t13-5h53v-179h-53q-8 0-13-5t-5-13v-89q0-8 5-13t13-5h250q7 0 12 5t5 13z m-71 500v89q0 8-5 13t-13 5h-107q-8 0-13-5t-5-13v-89q0-8 5-13t13-5h107q8 0 13 5t5 13z m357-232q0-117-57-215t-156-156-215-58-216 58-155 156-58 215 58 215 155 156 216 58 215-58 156-156 57-215z" horiz-adv-x="857.1" />

<glyph glyph-name="attention-circled" unicode="&#xe805;" d="M429 779q116 0 215-58t156-156 57-215-57-215-156-156-215-58-216 58-155 156-58 215 58 215 155 156 216 58z m71-696v106q0 8-5 13t-12 5h-107q-8 0-13-5t-6-13v-106q0-8 6-13t13-6h107q7 0 12 6t5 13z m-1 192l10 346q0 7-6 10-5 5-13 5h-123q-8 0-13-5-6-3-6-10l10-346q0-6 5-10t14-4h103q8 0 13 4t6 10z" horiz-adv-x="857.1" />

<glyph glyph-name="attention" unicode="&#xe806;" d="M571 83v106q0 8-5 13t-12 5h-108q-7 0-12-5t-5-13v-106q0-8 5-13t12-6h108q7 0 12 6t5 13z m-1 208l10 257q0 6-5 10-7 6-14 6h-122q-6 0-14-6-5-4-5-12l9-255q0-5 6-9t13-3h103q8 0 14 3t5 9z m-7 522l428-786q20-35-1-70-9-17-26-26t-35-10h-858q-18 0-35 10t-26 26q-21 35-1 70l429 786q9 17 26 27t36 10 36-10 27-27z" horiz-adv-x="1000" />

<glyph glyph-name="cancel-circled" unicode="&#xe807;" d="M641 224q0 14-10 25l-101 101 101 101q10 11 10 25 0 15-10 26l-51 50q-10 11-25 11-15 0-25-11l-101-101-101 101q-11 11-25 11-16 0-26-11l-50-50q-11-11-11-26 0-14 11-25l101-101-101-101q-11-11-11-25 0-15 11-26l50-50q10-11 26-11 14 0 25 11l101 101 101-101q10-11 25-11 15 0 25 11l51 50q10 11 10 26z m216 126q0-117-57-215t-156-156-215-58-216 58-155 156-58 215 58 215 155 156 216 58 215-58 156-156 57-215z" horiz-adv-x="857.1" />

<glyph glyph-name="down-open" unicode="&#xe808;" d="M939 399l-414-413q-10-11-25-11t-25 11l-414 413q-11 11-11 26t11 25l93 92q10 11 25 11t25-11l296-296 296 296q11 11 25 11t26-11l92-92q11-11 11-25t-11-26z" horiz-adv-x="1000" />

<glyph glyph-name="left-open" unicode="&#xe809;" d="M654 682l-297-296 297-297q10-10 10-25t-10-25l-93-93q-11-10-25-10t-25 10l-414 415q-11 10-11 25t11 25l414 414q10 11 25 11t25-11l93-93q10-10 10-25t-10-25z" horiz-adv-x="714.3" />

<glyph glyph-name="right-open" unicode="&#xe80a;" d="M618 361l-414-415q-11-10-25-10t-25 10l-93 93q-11 11-11 25t11 25l296 297-296 296q-11 11-11 25t11 25l93 93q10 11 25 11t25-11l414-414q10-11 10-25t-10-25z" horiz-adv-x="714.3" />

<glyph glyph-name="up-open" unicode="&#xe80b;" d="M939 107l-92-92q-11-10-26-10t-25 10l-296 297-296-297q-11-10-25-10t-25 10l-93 92q-11 11-11 26t11 25l414 414q11 10 25 10t25-10l414-414q11-11 11-25t-11-26z" horiz-adv-x="1000" />

<glyph glyph-name="arrow-left-outline" unicode="&#xe80c;" d="M455-25c-33 0-64 13-88 37l-297 296 297 297c47 47 130 47 177 0 23-23 36-55 36-88 0-31-11-61-31-84h201c69 0 125-56 125-125s-56-125-125-125h-201c20-22 31-52 31-83 0-33-13-65-36-88-24-24-55-37-89-37z m-267 333l238-237c16-16 43-16 59 0 8 7 12 18 12 29s-4 22-12 29l-137 138h402c23 0 42 18 42 41s-19 42-42 42h-402l137 137c8 8 12 19 12 30s-4 21-12 29c-16 16-43 16-59 0l-238-238z" horiz-adv-x="1000" />

<glyph glyph-name="arrow-left-thick" unicode="&#xe80d;" d="M750 392h-302l66 66c33 32 33 85 0 118-32 32-85 32-118 0l-267-268 267-267c17-16 38-24 59-24s43 8 59 24c33 33 33 86 0 118l-66 66h302c46 0 83 37 83 83 0 46-37 84-83 84z" horiz-adv-x="1000" />

<glyph glyph-name="arrow-loop" unicode="&#xe80e;" d="M688 517h-87l54 54c16 16 16 42 0 59s-43 16-59 0l-155-155 155-154c8-9 18-13 29-13s21 4 30 13c16 16 16 42 0 59l-54 53h87c57 0 104-56 104-125s-56-125-125-125h-334c-69 0-125 56-125 125s56 125 125 125c23 0 42 19 42 42s-19 42-42 42c-114 0-208-94-208-209s94-208 208-208h334c115 0 208 94 208 208s-84 209-187 209z" horiz-adv-x="1000" />

<glyph glyph-name="arrow-loop-outline" unicode="&#xe80f;" d="M791 551l1 7c0 34-13 65-37 89-23 23-55 36-88 36s-65-13-89-36l-120-120c-22 19-51 31-83 31h-42c-160 0-291-130-291-291s131-292 291-292h375c161 0 292 131 292 292 0 137-89 253-209 284z m-83-493h-375c-114 0-208 94-208 209s94 208 208 208h42c23 0 42-19 42-42s-19-41-42-41h-42c-69 0-125-56-125-125s56-125 125-125h375c69 0 125 56 125 125s-46 125-104 125h-87l54-54c16-16 16-43 0-59-8-8-19-12-29-12s-22 4-30 12l-154 154 154 155c8 8 19 12 30 12s21-4 29-12c16-16 16-43 0-59l-54-54h87c104 0 188-93 188-208s-94-209-209-209z m32 291c29-7 52-42 52-82 0-46-38-84-84-84h-375c-46 0-83 38-83 84s37 83 83 83h42c36 0 66 23 78 54l155-155c16-15 36-24 59-24s43 9 59 24 24 37 24 59c0 15-4 29-10 41z" horiz-adv-x="1000" />

<glyph glyph-name="arrow-maximise" unicode="&#xe810;" d="M625 683c-23 0-42-18-42-41s19-42 42-42h66l-137-137c-16-16-16-43 0-59 8-8 19-12 29-12s22 4 30 12l137 137v-66c0-23 19-42 42-42s41 19 41 42v208h-208z m-238-387l-137-137v66c0 23-19 42-42 42s-41-19-41-42v-208h41l167 0c23 0 42 18 42 41s-19 42-42 42h-66l137 137c16 17 16 43 0 59s-42 16-59 0z m-95 54c23 0 41 19 41 42v125h125c23 0 42 18 42 41s-19 42-42 42h-208l0-208c0-23 19-42 42-42z m416 0c-23 0-41-19-41-42v-125h-125c-23 0-42-18-42-41s19-42 42-42h208v208c0 23-19 42-42 42z" horiz-adv-x="1000" />

<glyph glyph-name="arrow-maximise-outline" unicode="&#xe811;" d="M792 725h-219c-54 0-100-35-117-83h-289v-294l0-5c-48-18-84-63-84-118v-292h292c55 0 108 35 125 84h292v294l-1 5c49 17 84 63 84 117v292h-83z m-84-625h-208c-23 0-42 19-42 42s19 41 42 41h125v128c0 23 19 42 42 42s41-19 41-42v-211z m-458 458h211c23 0 42-18 42-41s-19-42-42-42h-128v-127c0-23-18-42-41-42-23 0-42 19-42 42v210z m542-125c0-23-19-41-42-41s-42 18-42 41v66l-137-137c-8-8-19-12-29-12s-22 4-30 12c-16 17-16 43 0 59l137 137h-66c-23 0-41 19-41 42s18 42 41 42h209v-209z m-417-416h-208v208c0 23 18 42 41 42s42-19 42-42v-66l137 137c8 8 19 12 30 12s21-4 29-12c16-16 16-42 0-59l-137-137h66c23 0 42-19 42-42s-19-41-42-41z m101 309c-16 15-37 24-59 24-16 0-30-4-43-12l1 10v85h86l9 1c-7-12-12-27-12-42 0-23 9-43 25-59s36-25 59-25c15 0 30 5 42 12l-1-9v-86h-80c-5 0-10-1-15-1 8 12 12 27 12 43 0 22-9 43-24 59z" horiz-adv-x="1000" />

<glyph glyph-name="arrow-minimise" unicode="&#xe812;" d="M255 308c-23 0-42-18-42-41s19-42 42-42h61l-137-137c-16-16-16-43 0-59 8-8 19-12 29-12s22 4 30 12l142 142v-71c0-23 19-42 42-42s36 19 36 42v208h-203z m37 84c23 0 41 18 41 41v84h84c23 0 41 18 41 41s-18 42-41 42h-167l0-167c0-23 19-41 42-41z m416-84c-23 0-41-18-41-41v-84h-84c-23 0-41-18-41-41s18-42 41-42h167v167c0 23-19 41-42 41z m54 363l-137-137v66c0 23-19 42-42 42s-41-19-41-42v-208h208c23 0 42 18 42 41s-19 42-42 42h-66l137 137c16 17 16 43 0 59s-42 16-59 0z" horiz-adv-x="1000" />

<glyph glyph-name="arrow-minimise-outline" unicode="&#xe813;" d="M917 600c0 33-13 65-37 88-23 24-55 37-88 37s-65-13-89-37l-36-36c-23 19-52 31-84 31-38 0-72-17-95-44-9 1-18 3-27 3h-253v-253c0-10 2-21 5-30-25-23-41-56-41-92 0-31 11-59 29-81l-39-39c-24-24-37-55-37-89s13-65 37-88c23-24 55-37 88-37 23 0 56 7 86 37l38 38c22-20 52-33 84-33 39 0 74 18 97 46 10-2 20-4 31-4h247v252c0 10-1 19-3 28 27 23 45 56 45 95 0 32-12 61-32 83l37 37c24 23 37 55 37 88z m-625-42h166c23 0 42-18 42-41s-19-42-42-42h-83v-83c0-23-19-42-42-42-23 0-41 19-41 42v166z m529 13l-137-138h66c23 0 42-18 42-41s-19-42-42-42h-208v208c0 23 18 42 41 42s42-19 42-42v-66l137 138c8 8 19 12 30 12s21-4 29-12c16-17 16-43 0-59z m-321-471c0-23-19-42-42-42s-41 19-41 42v71l-140-142c-8-8-16-12-27-12s-21 4-29 12c-17 16-17 43 0 59l137 137h-61c-23 0-42 19-42 42s19 41 42 41h203v-208z m0 250h-95c7 12 12 26 12 42v41h44c14 0 27 4 39 11v-94z m42-42h113c-18-4-30-13-30-39v-44h-39c-16 0-31-5-44-13v96z m2-166c0 23 19 41 42 41h81v84c0 23 18 41 41 41s42-18 42-41v-167h-164c-23 0-42 19-42 42z" horiz-adv-x="1000" />

<glyph glyph-name="arrow-move" unicode="&#xe814;" d="M738 505c-16 16-43 16-59 0s-16-43 0-59l54-54h-191v191l54-54c8-8 18-12 29-12s21 4 30 12c16 16 16 43 0 59l-155 154-154-154c-17-16-17-43 0-59s42-16 59 0l53 54v-191h-191l54 54c16 16 16 42 0 59s-42 16-59 0l-154-155 154-154c8-9 19-13 30-13s21 4 29 13c16 16 16 42 0 59l-54 53h191v-191l-53 54c-17 16-43 16-59 0s-17-42 0-59l154-154 155 154c16 17 16 43 0 59s-43 16-59 0l-54-54v191h191l-54-53c-16-17-16-43 0-59 8-9 19-13 29-13s22 4 30 13l154 154-154 155z" horiz-adv-x="1000" />

<glyph glyph-name="arrow-move-outline" unicode="&#xe815;" d="M951 409l-392 392c-16 17-38 25-59 25s-43-8-59-25l-392-392c-33-32-33-85 0-118l392-392c16-17 38-25 59-25s43 8 59 25l392 392c33 33 33 86 0 118z m-243-226c-10 0-21 4-29 13-16 16-16 42 0 59l54 53h-191v-191l54 54c8 8 18 12 29 12s21-4 30-12c16-16 16-42 0-59l-155-154-154 154c-17 17-17 43 0 59 8 8 18 12 29 12s21-4 30-12l53-54v191h-191l54-53c16-17 16-43 0-59-8-9-19-13-29-13s-22 4-30 13l-154 154 154 155c8 8 19 12 30 12s21-4 29-12c16-17 16-43 0-59l-54-54h191v191l-53-54c-9-8-19-12-30-12s-21 4-29 12c-17 16-17 43 0 59l154 154 155-154c16-16 16-43 0-59-9-8-19-12-30-12s-21 4-29 12l-54 54v-191h191l-54 54c-16 16-16 42 0 59 8 8 19 12 29 12s22-4 30-12l154-155-154-154c-8-9-19-13-30-13z m-72 84c-7-13-11-27-11-42-15 0-29-4-42-11v53h53z m-272 0h53v-53c-13 7-27 11-42 11 0 15-4 29-11 42z m0 166c7 13 11 27 11 42 15 0 29 4 42 11v-53h-53z m272 0h-53v53c13-7 27-11 42-11 0-15 4-29 11-42z" horiz-adv-x="1000" />

<glyph glyph-name="arrow-repeat" unicode="&#xe816;" d="M688 558h-87l54 54c16 17 16 43 0 59s-43 16-59 0l-155-154 155-155c8-8 18-12 29-12s21 4 30 12c16 17 16 43 0 59l-54 54h87c57 0 104-56 104-125s-56-125-125-125c-23 0-42-19-42-42s19-41 42-41c115 0 208 93 208 208s-84 208-187 208z m-342-220c-17-16-17-43 0-59l53-54h-86c-58 0-105 56-105 125s56 125 125 125c23 0 42 19 42 42s-19 41-42 41c-114 0-208-93-208-208s84-208 188-208h86l-53-54c-17-16-17-43 0-59 8-8 18-12 29-12s21 4 30 12l154 154-154 155c-17 16-43 16-59 0z" horiz-adv-x="1000" />

<glyph glyph-name="arrow-repeat-outline" unicode="&#xe817;" d="M791 551l1 7c0 34-13 65-37 89-23 23-55 36-88 36s-65-13-89-36l-120-121c-22 20-51 32-83 32h-42c-160 0-291-130-291-291 0-138 89-254 208-284l0-8c0-33 13-65 37-88 23-24 55-37 88-37s65 13 88 37l121 120c22-20 51-32 83-32h41c161 0 292 131 292 292 0 137-89 253-209 284z m-83-493h-41c-23 0-42 19-42 42s19 42 42 42h41c69 0 125 56 125 125s-46 125-104 125h-87l54-54c16-16 16-43 0-59-8-8-19-12-29-12s-22 4-30 12l-154 154 154 155c8 8 19 12 30 12s21-4 29-12c16-16 16-43 0-59l-54-54h87c104 0 188-93 188-208s-94-209-209-209z m32 291c29-7 52-42 52-82 0-46-38-84-84-84h-41c-36 0-66-22-78-54l-155 155c-16 16-37 24-59 24s-43-8-59-24-24-37-24-59c0-14 3-28 10-40-29 6-52 41-52 82 0 46 37 83 83 83h42c36 0 66 23 78 54l155-155c16-15 36-24 59-24s43 9 59 24 24 37 24 59c0 15-4 29-10 41z m-323 84c0-23-19-41-42-41h-42c-69 0-125-56-125-125s47-125 105-125h86l-53 54c-17 16-17 42 0 59 8 8 18 12 29 12s21-4 30-12l154-155-154-155c-9-8-19-12-30-12s-21 4-29 12c-17 17-17 43 0 60l53 53h-86c-104 0-188 94-188 209s94 208 208 208h42c23 0 42-19 42-42z" horiz-adv-x="1000" />

<glyph glyph-name="arrow-right" unicode="&#xe818;" d="M554 546c-16-16-16-42 0-59l95-95h-316c-23 0-41-19-41-42s18-42 41-42h316l-95-95c-16-16-16-43 0-59 8-8 19-12 29-12s22 4 30 12l196 196-196 196c-16 16-43 16-59 0z" horiz-adv-x="1000" />

<glyph glyph-name="arrow-right-outline" unicode="&#xe819;" d="M500-25c-33 0-65 13-88 37s-37 55-37 88c0 31 11 42 32 83h-202c-69 0-125 57-125 125 0 69 56 125 125 125h202c-21 42-32 53-32 84 0 33 13 65 37 88 47 47 129 47 176 0l297-297-297-296c-23-24-55-37-88-37z m-295 375c-23 0-41-19-41-42s18-41 41-41h403l-137-137c-8-8-13-19-13-30 0-11 5-22 13-29 15-16 43-16 59 0l237 237-237 238c-16 16-44 16-59 0-8-8-13-18-13-29 0-11 5-22 13-30l137-137h-403z" horiz-adv-x="1000" />

<glyph glyph-name="arrow-right-thick" unicode="&#xe81a;" d="M441 576c-32-33-32-86 0-118l66-66h-302c-46 0-83-38-83-84 0-46 37-83 83-83h302l-66-66c-32-32-32-85 0-118 16-16 38-24 59-24s43 8 59 24l267 267-267 268c-33 32-85 32-118 0z" horiz-adv-x="1000" />

<glyph glyph-name="arrow-shuffle" unicode="&#xe81b;" d="M167 475h146c30 0 58-16 77-42 13 26 30 49 49 70-33 34-77 55-126 55h-146c-23 0-42-18-42-41s19-42 42-42z m320-130c23 69 94 130 152 130h77l-54-54c-17-16-17-42 0-59 8-8 18-12 29-12s21 4 30 12l154 155-154 154c-17 16-43 16-59 0s-17-42 0-59l54-54h-77c-95 0-196-82-231-186l-20-59c-27-80-86-130-117-130h-104c-23 0-42-18-42-41s19-42 42-42h104c76 0 161 80 196 187l20 58z m175-49c-17-16-17-42 0-59l54-54h-98c-53 0-97 38-112 88-11-31-26-62-45-91 37-48 93-80 157-80h98l-54-54c-17-16-17-42 0-59 8-8 18-12 29-12s21 4 30 12l154 155-154 154c-17 16-43 16-59 0z" horiz-adv-x="1000" />

<glyph glyph-name="arrow-sorted-down" unicode="&#xe81c;" d="M242 446l258-263 258 263c9 8 13 21 13 29s-4 21-13 29c-8 9-16 13-29 13h-458c-13 0-21-4-29-13-9-8-13-16-13-29s4-21 13-29z" horiz-adv-x="1000" />

<glyph glyph-name="arrow-sorted-up" unicode="&#xe81d;" d="M758 296l-258 262-258-262c-9-8-13-21-13-29s4-21 13-29c8-9 16-13 29-13h458c13 0 21 4 29 13 9 8 13 20 13 29s-4 21-13 29z" horiz-adv-x="1000" />

<glyph glyph-name="arrow-sync" unicode="&#xe81e;" d="M813 330c0 82-26 142-87 202-16 16-42 16-58 0-17-16-17-42 0-59 45-45 61-83 61-143 0-61-24-118-67-162-42-41-86-62-143-66l52 52c16 16 16 43 0 59s-42 16-59 0l-154-155 154-154c8-8 19-12 30-12s21 4 29 12c16 16 16 42 0 59l-56 56c81 3 148 33 206 90 59 59 92 138 92 221z m-542-1c0 61 24 119 67 162 42 42 87 63 144 67l-53-53c-16-17-16-43 0-59 8-9 19-13 29-13s22 4 30 13l154 154-154 155c-16 16-43 16-59 0s-16-43 0-59l55-55c-80-4-147-33-205-91-59-59-91-137-91-221 0-81 25-141 86-202 8-8 18-12 29-12s21 4 30 12c16 17 16 43 0 59-45 45-62 84-62 143z" horiz-adv-x="1000" />

<glyph glyph-name="arrow-sync-outline" unicode="&#xe81f;" d="M896 330c0 104-34 185-111 261-13 13-28 22-44 29l-40 39-154 154c-24 24-55 37-89 37s-64-13-88-37c-24-23-37-55-37-88 0-11 2-23 5-34-43-19-82-46-118-82-75-75-116-174-116-280 0-104 34-184 111-261 12-12 27-21 43-27l41-42 154-154c24-24 55-37 89-37s65 13 88 37c24 23 37 55 37 88 0 12-2 24-5 35 43 19 82 47 118 82 75 75 116 175 116 280z m-381-311l56-56c16-17 16-43 0-59-8-8-19-12-29-12s-22 4-30 12l-154 154 154 155c8 8 19 12 30 12s21-4 29-12c16-16 16-43 0-59l-52-52c57 4 101 25 143 66 43 44 67 101 67 162 0 60-17 98-61 143-17 17-17 43 0 59 8 8 18 12 29 12 11 0 21-4 29-12 61-60 87-120 87-202 0-83-33-162-92-221-58-57-125-87-206-90z m-31 622l-55 55c-16 16-16 42 0 59 8 8 19 12 29 12s22-4 30-12l154-155-154-154c-8-9-19-13-30-13s-21 4-29 13c-16 16-16 42 0 59l53 53c-57-4-102-25-144-67-43-43-67-101-67-162 0-59 17-98 62-143 16-16 16-42 0-59-9-8-19-12-30-12s-21 4-29 12c-61 61-86 121-86 202 0 84 32 162 91 221 58 58 125 87 205 91z m-122-425c-37 37-49 65-49 113 0 50 19 97 54 133l8 7c2-20 10-39 24-53 16-16 37-24 59-24s44 8 59 24l98 98c-3-25 4-51 23-70 37-37 50-66 50-114 0-50-20-97-55-132l-8-8c-2 20-10 38-24 52-16 16-37 25-59 25s-43-9-59-25l-98-97c4 25-4 51-23 71z" horiz-adv-x="1000" />

<glyph glyph-name="arrow-unsorted" unicode="&#xe820;" d="M758 463l-258 262-258-262c-9-9-13-17-13-30s4-20 13-29c8-8 16-12 29-12h458c13 0 21 4 29 12 9 9 13 21 13 29s-4 21-13 30z m-516-225l258-263 258 263c9 8 13 20 13 29s-4 21-13 29c-8 8-16 12-29 12h-458c-13 0-21-4-29-12-9-8-13-21-13-29s4-21 13-29z" horiz-adv-x="1000" />

<glyph glyph-name="arrow-up" unicode="&#xe821;" d="M542 617l-196-196c-17-16-17-42 0-59s42-16 59 0l95 96v-316c0-23 19-42 42-42s41 19 41 42v316l96-96c8-8 19-12 29-12s22 4 30 12c16 17 16 43 0 59l-196 196z" horiz-adv-x="1000" />

<glyph glyph-name="arrow-up-outline" unicode="&#xe822;" d="M500-25c-69 0-125 56-125 125v199c-48-43-126-41-172 4-48 49-48 128 0 177l297 297 297-297c49-49 49-128 0-177-46-45-124-47-172-4v-199c0-69-56-125-125-125z m-42 524v-399c0-23 19-42 42-42s42 19 42 42v399l137-137c16-15 43-15 59 0 16 17 16 43 0 59l-238 238-238-238c-16-16-16-42 0-59 16-15 43-15 59 0l137 137z" horiz-adv-x="1000" />

<glyph glyph-name="arrow-up-thick" unicode="&#xe823;" d="M500 718l-267-267c-33-33-33-86 0-118s85-33 118 0l66 66v-302c0-46 37-83 83-83 46 0 83 37 83 83v302l66-66c17-16 38-25 59-25s43 9 59 25c33 32 33 85 0 118l-267 267z" horiz-adv-x="1000" />

<glyph glyph-name="at" unicode="&#xe824;" d="M500 683c-184 0-333-149-333-333s149-333 333-333c67 0 132 20 188 57 19 13 23 39 10 58-12 19-38 24-57 11-42-28-90-43-141-43-138 0-250 112-250 250s112 250 250 250 250-112 250-250v-21c0-23-19-41-42-41s-41 18-41 41v125c0 23-19 42-42 42-18 0-33-12-39-29-24 18-54 29-86 29-80 0-146-66-146-146s66-146 146-146c44 0 82 20 109 50 23-30 59-50 99-50 69 0 125 56 125 125v21c0 184-149 333-333 333z m0-395c-34 0-62 28-62 62s28 63 62 63 63-28 63-63-28-62-63-62z" horiz-adv-x="1000" />

<glyph glyph-name="attachment" unicode="&#xe825;" d="M765 574c-65 65-171 65-236 0l-188-189c-20-20-31-46-31-74 0-28 11-54 31-74 20-20 47-30 73-30 27 0 54 10 74 30l88 89c17 16 25 37 25 59 0 21-8 42-25 58l-147-147c-8-8-21-8-30 0-5 6-6 12-6 15 0 3 1 9 6 15l189 189c33 32 86 32 118 0 33-33 33-86 0-118l-189-189-105-106c-33-32-86-32-118 0-33 33-33 86 0 118l4 4c-19 25-29 57-29 89l-34-34c-65-65-65-171 0-236 32-32 75-49 118-49s85 17 118 49l294 295c65 65 65 171 0 236z" horiz-adv-x="1000" />

<glyph glyph-name="attachment-outline" unicode="&#xe826;" d="M647 664c43 0 86-16 118-49 65-65 65-170 0-235l-294-295c-33-33-76-49-118-49s-86 16-118 49c-65 65-65 171 0 236l34 33c-1-33 10-63 29-88l-4-4c-33-33-33-86 0-118 16-16 37-24 59-24s42 8 59 24l105 105 189 190c33 32 33 85 0 117-16 17-37 25-59 25-21 0-42-8-59-25l-189-189c-5-5-6-11-6-14 0-4 1-10 6-15 5-4 10-6 15-6 6 0 11 2 15 6l88 88 59 59c17-16 25-37 25-59 0-21-8-42-25-59l-88-88c-20-20-47-30-74-30s-53 10-74 30c-19 20-30 46-30 74 0 28 11 54 31 73l188 189c33 33 76 49 118 49m0 83c-67 0-129-26-176-73l-295-295c-47-47-73-109-73-176s26-130 73-177c47-47 110-73 177-73s129 26 176 73l295 295c47 47 73 110 73 176 0 67-26 130-73 177-47 47-110 73-177 73z" horiz-adv-x="1000" />

<glyph glyph-name="backspace" unicode="&#xe827;" d="M813 642h-417c-53 0-118-34-149-77l-109-152-50-70c-5-7-5-20 1-28l49-69 109-153c31-43 96-76 149-76h417c57 0 104 46 104 104v417c0 57-47 104-104 104z m-96-408c16-17 16-43 0-59-8-8-19-12-29-12s-22 4-30 12l-95 95-96-95c-8-8-19-12-29-12s-22 4-30 12c-16 16-16 42 0 59l96 95-96 96c-16 16-16 42 0 59s43 16 59 0l96-96 95 96c16 16 43 16 59 0s16-43 0-59l-96-96 96-95z" horiz-adv-x="1000" />

<glyph glyph-name="backspace-outline" unicode="&#xe828;" d="M792-25h-417c-60 0-131 37-166 85l-109 153-49 69c-11 15-11 38-1 52l51 70 108 152c35 49 106 86 166 86h417c69 0 125-56 125-125v-417c0-69-56-125-125-125z m-657 333l33-46 109-153c19-27 66-51 98-51h417c23 0 41 19 41 42v417c0 23-18 41-41 41h-417c-32 0-79-24-98-50l-109-152-33-48z m436 0l110 111c9 8 9 21 0 29-8 8-21 8-29 0l-110-110-111 110c-8 8-21 8-29 0-8-8-8-21 0-29l110-111-110-110c-8-8-8-21 0-29 4-4 9-6 15-6s10 2 14 6l111 110 110-110c4-4 9-6 15-6s10 2 14 6c9 8 9 21 0 29l-110 110z" horiz-adv-x="1000" />

<glyph glyph-name="battery-full" unicode="&#xe829;" d="M375 183c-23 0-42 19-42 42v167c0 23 19 41 42 41s42-18 42-41v-167c0-23-19-42-42-42z m-125 0c-23 0-42 19-42 42v167c0 23 19 41 42 41s42-18 42-41v-167c0-23-19-42-42-42z m375 0c-23 0-42 19-42 42v167c0 23 19 41 42 41s42-18 42-41v-167c0-23-19-42-42-42z m-125 0c-23 0-42 19-42 42v167c0 23 19 41 42 41s42-18 42-41v-167c0-23-19-42-42-42z m292 250c0 69-56 125-125 125h-459c-69 0-125-56-125-125v-250c0-69 56-125 125-125h459c69 0 125 56 125 125 46 0 83 38 83 84v83c0 46-37 83-83 83z m-84-250c0-23-18-41-41-41h-459c-23 0-41 18-41 41v250c0 23 18 42 41 42h459c23 0 41-19 41-42v-250z" horiz-adv-x="1000" />

<glyph glyph-name="battery-high" unicode="&#xe82a;" d="M375 183c-23 0-42 19-42 42v167c0 23 19 41 42 41s42-18 42-41v-167c0-23-19-42-42-42z m-125 0c-23 0-42 19-42 42v167c0 23 19 41 42 41s42-18 42-41v-167c0-23-19-42-42-42z m250 0c-23 0-42 19-42 42v167c0 23 19 41 42 41s42-18 42-41v-167c0-23-19-42-42-42z m292 250c0 69-56 125-125 125h-459c-69 0-125-56-125-125v-250c0-69 56-125 125-125h459c69 0 125 56 125 125 46 0 83 38 83 84v83c0 46-37 83-83 83z m-84-250c0-23-18-41-41-41h-459c-23 0-41 18-41 41v250c0 23 18 42 41 42h459c23 0 41-19 41-42v-250z" horiz-adv-x="1000" />

<glyph glyph-name="battery-charge" unicode="&#xe82b;" d="M208 433v-250h459v250h-459z m243-204l-50 79-109-17 134 96 49-79 108 18-132-97z m341 204c0 69-56 125-125 125h-459c-69 0-125-56-125-125v-250c0-69 56-125 125-125h459c69 0 125 56 125 125 46 0 83 38 83 84v83c0 46-37 83-83 83z m-84-250c0-23-18-41-41-41h-459c-23 0-41 18-41 41v250c0 23 18 42 41 42h459c23 0 41-19 41-42v-250z" horiz-adv-x="1000" />

<glyph glyph-name="battery-low" unicode="&#xe82c;" d="M250 183c-23 0-42 19-42 42v167c0 23 19 41 42 41s42-18 42-41v-167c0-23-19-42-42-42z m542 250c0 69-56 125-125 125h-459c-69 0-125-56-125-125v-250c0-69 56-125 125-125h459c69 0 125 56 125 125 46 0 83 38 83 84v83c0 46-37 83-83 83z m-84-250c0-23-18-41-41-41h-459c-23 0-41 18-41 41v250c0 23 18 42 41 42h459c23 0 41-19 41-42v-250z" horiz-adv-x="1000" />

<glyph glyph-name="battery-mid" unicode="&#xe82d;" d="M375 183c-23 0-42 19-42 42v167c0 23 19 41 42 41s42-18 42-41v-167c0-23-19-42-42-42z m-125 0c-23 0-42 19-42 42v167c0 23 19 41 42 41s42-18 42-41v-167c0-23-19-42-42-42z m542 250c0 69-56 125-125 125h-459c-69 0-125-56-125-125v-250c0-69 56-125 125-125h459c69 0 125 56 125 125 46 0 83 38 83 84v83c0 46-37 83-83 83z m-84-250c0-23-18-41-41-41h-459c-23 0-41 18-41 41v250c0 23 18 42 41 42h459c23 0 41-19 41-42v-250z" horiz-adv-x="1000" />

<glyph glyph-name="beaker" unicode="&#xe82e;" d="M810 150l-110 408h50c23 0 42 19 42 42s-19 42-42 42h-500c-23 0-42-19-42-42s19-42 42-42h47c0-7-2-16-5-28l-102-380c-9-34-3-68 16-93 20-26 51-40 86-40h416c35 0 66 14 86 40 19 25 25 59 16 93z m-196 408l56-209-3 1h-334l-3-1 43 160c3 13 7 31 8 49h233z m114-451c-4-4-11-7-20-7h-416c-9 0-16 3-20 7-3 5-4 12-2 21l50 185c4-3 8-5 13-5h334c5 0 9 2 13 5l50-185c2-9 1-16-2-21z" horiz-adv-x="1000" />

<glyph glyph-name="beer" unicode="&#xe82f;" d="M417 163c0-12-10-21-21-21s-21 9-21 21v250c0 11 9 20 21 20s21-9 21-20v-250z m83 0c0-12-9-21-21-21s-21 9-21 21v250c0 11 10 20 21 20s21-9 21-20v-250z m83 0c0-12-9-21-20-21s-21 9-21 21v250c0 11 9 20 21 20s20-9 20-20v-250z m188 437h-21v42c0 46-37 83-83 83h-375c-46 0-84-37-84-83v-542c0-69 56-125 125-125h292c69 0 125 56 125 125h21c80 0 146 65 146 146v208c0 81-66 146-146 146z m-479 42h375v-42h-185l-5-14c-7-19-28-30-47-27l-14 3-8-13c-11-20-31-32-54-32-34 0-62 28-62 62v63z m375-542c0-23-19-42-42-42h-292c-23 0-41 19-41 42v396c17-13 39-21 62-21 33 0 64 16 83 42 30 0 58 16 72 41h158v-458z m166 146c0-35-28-63-62-63h-63v334h63c34 0 62-28 62-63v-208z" horiz-adv-x="1000" />

<glyph glyph-name="bell" unicode="&#xe830;" d="M822 129c-1 1-72 77-73 264 0 108-70 201-167 235l1 14c0 46-37 83-83 83s-83-37-83-83l1-14c-97-34-167-127-167-236 0-186-72-262-72-262-12-12-16-30-9-46s22-26 38-26h131c19-71 84-125 161-125s142 54 161 125h131c16 0 31 11 38 26s3 33-8 45z m-322 429c91 0 166-74 166-166 0-30 2-58 5-84h-342c3 26 5 54 5 84 0 92 75 166 166 166z m0-541c-31 0-57 17-72 41h144c-15-24-41-41-72-41z m-216 125c15 30 29 72 39 125h354c10-53 25-95 39-125h-432z" horiz-adv-x="1000" />

<glyph glyph-name="book" unicode="&#xe831;" d="M750 725h-458c-11 0-22-4-30-12l-125-125-2-3c-6-7-9-15-10-25l0-2v-458c0-69 56-125 125-125h375c54 0 101 35 118 83h28c58 0 104 55 104 125v417c0 69-56 125-125 125z m-500-667c-23 0-42 19-42 42v417h84v-459h-42z m417 42c0-23-19-42-42-42h-292v459h292c23 0 42-19 42-42v-375z m125 83c0-25-14-41-21-41h-21v333c0 69-56 125-125 125h-358l42 42h441c23 0 42-19 42-42v-417z" horiz-adv-x="1000" />

<glyph glyph-name="bookmark" unicode="&#xe832;" d="M708 767h-333c-69 0-125-56-125-125v-584c0-21 4-39 13-53 23-39 76-42 117 0l132 132c16 15 44 15 59 0l132-132c21-21 42-31 64-31 33 0 66 26 66 84v584c0 69-56 125-125 125z m-333-84h333c23 0 42-18 42-41v-413l-102 94c-59 53-154 53-213 0l-102-94v413c0 23 19 41 42 41z m255-487c-23 23-55 36-88 36s-65-13-89-36l-120-120v96l131 120c43 39 113 39 156 0l130-120v-96l-120 120z" horiz-adv-x="1000" />

<glyph glyph-name="briefcase" unicode="&#xe833;" d="M750 558c0 69-56 125-125 125h-250c-69 0-125-56-125-125-69 0-125-56-125-125v-291c0-69 56-125 125-125h500c69 0 125 56 125 125v291c0 69-56 125-125 125z m-375 42h250c23 0 42-19 42-42h-334c0 23 19 42 42 42z m417-458c0-23-19-42-42-42h-500c-23 0-42 19-42 42v41h584v-41z m-584 83v208c0 23 19 42 42 42h500c23 0 42-19 42-42v-208h-584z m334 125h-84c-23 0-41-19-41-42s18-41 41-41h84c23 0 41 18 41 41s-18 42-41 42z" horiz-adv-x="1000" />

<glyph glyph-name="brush" unicode="&#xe834;" d="M841 691c-16 16-37 24-59 24-11 0-21-2-31-6-186-74-325-198-438-390-5-7-7-14-9-22-58-9-108-38-144-83-38-50-53-113-44-178l9-61 61-9c13-2 25-3 37-3 114 0 206 80 224 191 8 1 15 4 22 9 192 113 316 252 390 438 13 31 5 66-18 90z m-618-644c-8 0-16 0-24 2-13 87 43 158 125 167l42-42c-8-74-67-127-143-127z m204 187l-43 43c16 27 33 51 49 75 2-2 69-69 69-69-24-17-49-33-75-49z m109 74s-76 75-79 76c90 116 194 195 325 248-52-131-131-235-246-324z" horiz-adv-x="1000" />

<glyph glyph-name="business-card" unicode="&#xe835;" d="M833 17h-666c-69 0-125 56-125 125v416c0 69 56 125 125 125h666c69 0 125-56 125-125v-416c0-69-56-125-125-125z m-666 583c-23 0-42-19-42-42v-416c0-23 19-42 42-42h666c23 0 42 19 42 42v416c0 23-19 42-42 42h-666z m250-375h-167c-23 0-42 19-42 42s19 41 42 41h167c23 0 41-18 41-41s-18-42-41-42z m0 167h-167c-23 0-42 18-42 41s19 42 42 42h167c23 0 41-19 41-42s-18-41-41-41z m250-98c-65 0-104-30-104-60 0-15 39-30 104-30 61 0 104 15 104 30 0 30-41 60-104 60z" horiz-adv-x="1000" />

<glyph glyph-name="calculator" unicode="&#xe836;" d="M708-25h-333c-71 0-125 54-125 125v500c0 71 54 125 125 125h333c71 0 125-54 125-125v-500c0-71-54-125-125-125z m-333 667c-25 0-42-17-42-42v-500c0-25 17-42 42-42h333c25 0 42 17 42 42v500c0 25-17 42-42 42h-333z m292-84v-41h-250v41h250m41 42h-333v-125h333v125z" horiz-adv-x="1000" />

<glyph glyph-name="calendar" unicode="&#xe837;" d="M792 592v8c0 69-56 125-125 125s-125-56-125-125h-84c0 69-56 125-125 125s-125-56-125-125v-8c-48-17-83-63-83-117v-375c0-69 56-125 125-125h500c69 0 125 56 125 125v375c0 54-35 100-83 117z m-167 8c0 23 19 42 42 42s41-19 41-42v-83c0-23-18-42-41-42s-42 19-42 42v83z m-333 0c0 23 18 42 41 42s42-19 42-42v-83c0-23-19-42-42-42s-41 19-41 42v83z m500-500c0-23-19-42-42-42h-500c-23 0-42 19-42 42v250h584v-250z" horiz-adv-x="1000" />

<glyph glyph-name="calendar-outline" unicode="&#xe838;" d="M792 592v8c0 69-56 125-125 125s-125-56-125-125h-84c0 69-56 125-125 125s-125-56-125-125v-8c-48-17-83-63-83-117v-375c0-69 56-125 125-125h500c69 0 125 56 125 125v375c0 54-35 100-83 117z m-167 8c0 23 19 42 42 42s41-19 41-42v-83c0-23-18-42-41-42s-42 19-42 42v83z m-333 0c0 23 18 42 41 42s42-19 42-42v-83c0-23-19-42-42-42s-41 19-41 42v83z m500-500c0-23-19-42-42-42h-500c-23 0-42 19-42 42v250h584v-250z m0 292h-584v83c0 23 19 42 42 42 0-46 37-84 83-84s84 38 84 84h166c0-46 38-84 84-84s83 38 83 84c23 0 42-19 42-42v-83z" horiz-adv-x="1000" />

<glyph glyph-name="camera" unicode="&#xe839;" d="M792 600h-66l-42 42c-24 24-66 41-101 41h-166c-34 0-77-17-101-41l-42-42h-66c-69 0-125-56-125-125v-333c0-69 56-125 125-125h584c69 0 125 56 125 125v333c0 69-56 125-125 125z m-292-417c-80 0-146 66-146 146 0 81 66 146 146 146s146-65 146-146c0-80-65-146-146-146z m250 196c-30 0-54 24-54 54s24 55 54 55 54-25 54-55-24-54-54-54z" horiz-adv-x="1000" />

<glyph glyph-name="camera-outline" unicode="&#xe83a;" d="M792 17h-584c-69 0-125 56-125 125v333c0 69 56 125 125 125h66l42 42c24 24 67 41 101 41h166c34 0 77-17 101-41l42-42h66c69 0 125-56 125-125v-333c0-69-56-125-125-125z m-584 500c-23 0-41-19-41-42v-333c0-23 18-42 41-42h584c23 0 41 19 41 42v333c0 23-18 42-41 42h-84c-11 0-21 4-29 12l-54 54c-8 8-30 17-42 17h-166c-12 0-34-9-42-17l-54-54c-8-8-18-12-29-12h-84z m292-84c58 0 104-46 104-104s-46-104-104-104-104 47-104 104 47 104 104 104m0 42c-81 0-146-65-146-146 0-80 65-146 146-146s146 66 146 146c0 81-65 146-146 146z m250 13c-30 0-54-25-54-55s24-54 54-54 54 24 54 54-24 55-54 55z" horiz-adv-x="1000" />

<glyph glyph-name="cancel" unicode="&#xe83b;" d="M500 683c-184 0-333-149-333-333s149-333 333-333 333 149 333 333-149 333-333 333z m-208-333c0 35 9 67 24 96l280-280c-29-15-61-24-96-24-115 0-208 93-208 208z m392-96l-280 280c29 15 61 24 96 24 115 0 208-93 208-208 0-35-9-67-24-96z" horiz-adv-x="1000" />

<glyph glyph-name="cancel-outline" unicode="&#xe83c;" d="M500-4c-195 0-354 159-354 354s159 354 354 354c195 0 354-159 354-354s-159-354-354-354z m0 625c-149 0-271-122-271-271s122-271 271-271 271 122 271 271-122 271-271 271z m0-125c81 0 146-66 146-146 0-9-1-17-2-26l-170 170c9 1 17 2 26 2m0 42c-37 0-70-11-99-29l257-258c19 29 30 63 30 99 0 103-84 188-188 188z m-143-162l169-169c-9-2-17-3-26-3-80 0-146 66-146 146 0 9 1 17 3 26m-15 74c-18-29-29-63-29-100 0-103 84-187 187-187 37 0 71 11 100 29l-258 258z" horiz-adv-x="1000" />

<glyph glyph-name="clipboard" unicode="&#xe83d;" d="M708 725h-416c-69 0-125-56-125-125v-500c0-69 56-125 125-125h416c69 0 125 56 125 125v500c0 69-56 125-125 125z m-333-83h250v-42c0-23-19-42-42-42h-166c-23 0-42 19-42 42v42z m375-542c0-23-19-42-42-42h-416c-23 0-42 19-42 42v500c0 23 19 42 42 42h41v-42c0-46 38-83 84-83h166c46 0 84 37 84 83v42h41c23 0 42-19 42-42v-500z m-83 42h-334c-11 0-20 9-20 21s9 20 20 20h334c11 0 21-9 21-20s-10-21-21-21z m0 125h-334c-11 0-20 9-20 21s9 20 20 20h334c11 0 21-9 21-20s-10-21-21-21z m0 125h-334c-11 0-20 9-20 21s9 20 20 20h334c11 0 21-9 21-20s-10-21-21-21z" horiz-adv-x="1000" />

<glyph glyph-name="cloud-storage" unicode="&#xe83e;" d="M708 475l-14-1c-35 99-128 168-236 168-137 0-250-112-250-250l0-6c-71-18-125-83-125-161 0-92 75-167 167-167h208v191l-53-53c-9-9-19-13-30-13s-21 4-29 13c-17 16-17 42 0 59l125 124c3 4 8 7 13 10 10 4 22 4 32 0 5-3 10-6 14-10l125-124c16-17 16-43 0-59-9-9-19-13-30-13s-21 4-29 13l-54 53v-191h166c115 0 209 94 209 209s-94 208-209 208z" horiz-adv-x="1000" />

<glyph glyph-name="cloud-storage-outline" unicode="&#xe83f;" d="M688 475l-15-1c-34 99-138 168-246 168-138 0-260-112-260-250v-5c-42-19-115-84-115-162 0-92 85-167 177-167h459c114 0 208 94 208 209s-94 208-208 208z m0-333h-188v158l89-90c5-4 10-6 15-6s11 2 15 6c8 8 8 22 0 30l-125 125-7 4c-5 2-11 2-16 0l-6-4-125-125c-9-8-9-22 0-30 4-4 9-6 14-6s11 2 15 6l89 90v-158h-229c-46 0-83 37-83 83s37 83 79 84l60-1-11 50c-2 11-3 22-3 34 0 92 75 166 167 166 81 0 150-58 163-139l8-45 45 12c13 4 24 6 34 6 69 0 125-56 125-125s-57-125-125-125z" horiz-adv-x="1000" />

<glyph glyph-name="code" unicode="&#xe840;" d="M341 100c-22 0-43 8-59 24l-184 184 184 184c32 33 85 33 117 0 33-32 33-85 0-118l-66-66 66-66c33-32 33-85 0-118-16-16-37-24-58-24z m319 0c-22 0-43 8-59 24-33 33-33 86 0 118l66 66-66 66c-33 33-33 86 0 118 32 33 85 33 118 0l183-184-183-184c-17-16-38-24-59-24z" horiz-adv-x="1000" />

<glyph glyph-name="code-outline" unicode="&#xe841;" d="M326 58c-33 0-65 13-88 37l-214 213 214 214c47 47 130 47 177 0 48-49 48-128 0-177l-37-37 37-36c48-49 48-128 0-177-24-24-55-37-89-37z m-184 250l155-154c16-16 43-16 59 0 16 16 16 43 0 59l-96 95 96 96c16 16 16 43 0 59-16 16-43 16-59 0l-155-155z m532-250c-34 0-65 13-89 37-48 49-48 128 1 177l36 36-36 37c-49 49-49 128 0 177 47 47 129 47 176 0l214-214-214-213c-23-24-55-37-88-37z m0 417c-11 0-22-4-30-12-16-16-16-43 0-59l96-96-96-95c-16-16-16-43 0-59 16-16 44-16 59 0l155 154-155 155c-8 8-18 12-29 12z" horiz-adv-x="1000" />

<glyph glyph-name="coffee" unicode="&#xe842;" d="M708 58h-500c-23 0-41 19-41 42s18 42 41 42h500c23 0 42-19 42-42s-19-42-42-42z m21 584h-521v-375c0-46 38-84 84-84h333c46 0 83 38 83 84v83h21c81 0 146 65 146 146s-65 146-146 146z m-104-375h-333v291h333v-291z m104 166h-62v125h62c35 0 63-28 63-62s-28-63-63-63z" horiz-adv-x="1000" />

<glyph glyph-name="cog" unicode="&#xe843;" d="M391 119l16-62c5-22 28-40 51-40h42c23 0 46 18 52 40l15 62c6 22 28 35 50 29l62-18c22-6 49 5 60 25l21 36c12 20 8 49-9 65l-46 44c-16 16-16 42 0 58l46 44c17 16 21 46 9 66l-21 36c-11 20-38 31-60 24l-62-17c-22-7-44 6-50 29l-15 61c-6 23-29 41-52 41h-42c-23 0-46-18-51-41l-16-61c-5-23-28-36-50-29l-61 17c-22 7-50-5-61-24l-21-37c-11-19-7-49 9-65l46-44c16-16 16-42 0-58l-46-44c-16-16-20-45-9-65l21-36c11-20 39-31 61-25l61 18c22 6 45-7 50-29z m88 294c46 0 84-38 84-84 0-46-38-83-84-83s-83 37-83 83c0 46 37 84 83 84z" horiz-adv-x="1000" />

<glyph glyph-name="cog-outline" unicode="&#xe844;" d="M542 642l35-143 142 41 62-109-106-102 106-102-62-108-142 40-35-142h-125l-36 142-141-40-63 108 106 102-106 102 63 109 141-41 36 143h125m0 83h-125c-39 0-72-26-81-63l-15-59-58 17c-8 2-16 3-23 3-29 0-57-15-72-42l-63-108c-19-33-13-75 14-102l44-42-44-42c-27-27-33-68-14-102l63-108c15-26 43-42 72-42 7 0 15 1 23 4l58 16 15-59c9-37 42-63 81-63h125c38 0 71 26 81 63l14 59 59-16c7-2 15-3 23-3 29 0 57 15 72 41l62 109c19 33 13 75-14 101l-44 42 44 43c27 26 33 68 14 101l-62 109c-16 26-43 41-72 41-8 0-16-1-23-3l-59-17-15 59c-9 37-42 63-80 63z m-63-312c46 0 84-38 84-84 0-46-38-83-84-83s-83 37-83 83c0 46 37 84 83 84m0 41c-69 0-125-56-125-125s56-125 125-125 125 56 125 125-56 125-125 125z" horiz-adv-x="1000" />

<glyph glyph-name="compass" unicode="&#xe845;" d="M500 642c161 0 292-131 292-292 0-161-131-292-292-292-161 0-292 131-292 292s131 292 292 292m0 83c-207 0-375-168-375-375 0-207 168-375 375-375 207 0 375 168 375 375 0 207-168 375-375 375z m174-201c-5 6-13 8-20 6l-248-72c-7-2-12-7-14-14l-71-248c-3-7-1-15 5-20 4-4 9-6 15-6l5 1 248 71c7 2 13 7 14 14l72 248c2 7 0 15-6 20z m-303-303l58 201 143-144-201-57z" horiz-adv-x="1000" />

<glyph glyph-name="contacts" unicode="&#xe846;" d="M792 725h-459c-69 0-125-56-125-125v-42h-41c-23 0-42-18-42-41s19-42 42-42h41v-83h-41c-23 0-42-19-42-42s19-42 42-42h41v-83h-41c-23 0-42-19-42-42s19-41 42-41h41v-42c0-69 56-125 125-125h459c69 0 125 56 125 125v500c0 69-56 125-125 125z m-500-125c0 23 18 42 41 42v-84h-41v42z m0-125h41v-83h-41v83z m0-167h41v-83h-41v83z m0-208v42h41v-84c-23 0-41 19-41 42z m541 0c0-23-18-42-41-42h-417v584h417c23 0 41-19 41-42v-500z m-250 194c-65 0-104-30-104-60 0-15 39-30 104-30 61 0 105 15 105 30 0 30-41 60-105 60z" horiz-adv-x="1000" />

<glyph glyph-name="credit-card" unicode="&#xe847;" d="M708 558h-458c-69 0-125-56-125-125v-291c0-69 56-125 125-125h458c69 0 125 56 125 125v291c0 69-56 125-125 125z m42-416c0-23-19-42-42-42h-458c-23 0-42 19-42 42v166h542v-166z m0 250h-542v41c0 23 19 42 42 42h458c23 0 42-19 42-42v-41z m-167-209h84c11 0 21 10 21 21s-10 21-21 21h-84c-11 0-20-9-20-21s9-21 20-21z" horiz-adv-x="1000" />

<glyph glyph-name="css3" unicode="&#xe848;" d="M238 708l-25-133h512l-17-87h-512l-25-134h512l-29-150-208-71-179 71 12 67h-125l-29-158 296-121 342 121 45 241 9 50 58 304h-637z" horiz-adv-x="1000" />

<glyph glyph-name="database" unicode="&#xe849;" d="M791 484c-7 154-135 278-291 278s-284-124-291-278l-1-4v-260c0-161 131-292 292-292s292 131 292 292v260l-1 4z m-291-368c-92 0-172 55-208 134v16c53-54 126-88 208-88s155 34 208 88v-16c-36-79-115-134-208-134z m0 562c115 0 208-93 208-208s-93-208-208-208-208 93-208 208 93 208 208 208z m0-666c-95 0-174 63-199 150 49-54 120-88 199-88s150 34 199 88c-25-87-104-150-199-150z" horiz-adv-x="1000" />

<glyph glyph-name="delete" unicode="&#xe84a;" d="M500 683c-184 0-333-149-333-333s149-333 333-333 333 149 333 333-149 333-333 333z m155-428c16-17 16-43 0-59-9-9-19-13-30-13s-21 4-29 13l-96 95-95-95c-9-9-19-13-30-13s-21 4-29 13c-17 16-17 42 0 59l95 95-95 96c-17 16-17 42 0 59s42 16 59 0l95-96 96 96c16 16 42 16 59 0s16-43 0-59l-96-96 96-95z" horiz-adv-x="1000" />

<glyph glyph-name="delete-outline" unicode="&#xe84b;" d="M500 725c-207 0-375-168-375-375s168-375 375-375 375 168 375 375-168 375-375 375z m0-667c-161 0-292 131-292 292s131 292 292 292 292-131 292-292-131-292-292-292z m30 292l110 110c8 8 8 22 0 30-8 8-22 8-30 0l-110-110-110 110c-8 8-22 8-30 0-8-8-8-22 0-30l111-110-111-110c-8-8-8-22 0-30 4-4 10-6 15-6s11 2 15 6l110 111 110-111c4-4 10-6 15-6s11 2 15 6c8 8 8 22 0 30l-110 110z" horiz-adv-x="1000" />

<glyph glyph-name="device-desktop" unicode="&#xe84c;" d="M875 808h-750c-69 0-125-56-125-125v-458c0-69 56-125 125-125h250v-83h-125c-23 0-42-19-42-42s19-42 42-42h500c23 0 42 19 42 42s-19 42-42 42h-125v83h250c69 0 125 56 125 125v458c0 69-56 125-125 125z m-292-791h-166v83h166v-83z m334 208c0-23-19-42-42-42h-750c-23 0-42 19-42 42v458c0 23 19 42 42 42h750c23 0 42-19 42-42v-458z m-84 458h-666c-23 0-42-18-42-41v-334c0-23 19-41 42-41h666c23 0 42 18 42 41v334c0 23-19 41-42 41z m0-375h-666v334h666v-334z" horiz-adv-x="1000" />

<glyph glyph-name="device-laptop" unicode="&#xe84d;" d="M916 181c1 13 1 28 1 44v375c0 69-56 125-125 125h-584c-69 0-125-56-125-125v-375c0-16 0-30 1-44-48-9-84-51-84-102 0-57 47-104 104-104h792c57 0 104 47 104 104 0 51-36 93-84 102z m-749 419c0 23 18 42 41 42h584c23 0 41-19 41-42v-375c0-16 0-30 0-42h-41v375c0 23-19 42-42 42h-500c-23 0-42-19-42-42v-375h-40c-1 11-1 25-1 42v375z m583-417h-500v375h500v-375z m146-125h-792c-11 0-21 10-21 21s10 21 21 21h792c11 0 21-9 21-21s-10-21-21-21z" horiz-adv-x="1000" />

<glyph glyph-name="device-phone" unicode="&#xe84e;" d="M625 725h-292c-69 0-125-56-125-125v-500c0-69 56-125 125-125h292c69 0 125 56 125 125v500c0 69-56 125-125 125z m42-625c0-23-19-42-42-42h-292c-23 0-41 19-41 42v500c0 23 18 42 41 42h292c23 0 42-19 42-42v-500z m-84 500h-208c-23 0-42-19-42-42v-375c0-23 19-41 42-41h63c0-23 18-42 41-42s42 19 42 42h62c23 0 42 18 42 41v375c0 23-19 42-42 42z m0-417h-208v375h208v-375z" horiz-adv-x="1000" />

<glyph glyph-name="device-tablet" unicode="&#xe84f;" d="M708 683h-375c-23 0-41-18-41-41v-500c0-23 18-42 41-42h146c0-23 19-42 42-42s42 19 42 42h145c23 0 42 19 42 42v500c0 23-19 41-42 41z m0-541h-375v500h375v-500z m42 666h-458c-69 0-125-56-125-125v-625c0-69 56-125 125-125h458c69 0 125 56 125 125v625c0 69-56 125-125 125z m42-750c0-23-19-41-42-41h-458c-23 0-42 18-42 41v625c0 23 19 42 42 42h458c23 0 42-19 42-42v-625z" horiz-adv-x="1000" />

<glyph glyph-name="directions" unicode="&#xe850;" d="M871 454l-115 109c-23 22-60 37-93 37h-121v21c0 34-28 62-63 62s-62-28-62-62v-21h-146c-81 0-146-65-146-146 0-58 35-108 84-131l-77-77 107-107c24-24 61-39 94-39h92l33-167h42l33 167h113c80 0 146 65 146 146 0 37-15 71-38 97l3 3 114 108z m-225-271h-313c-11 0-27 7-35 15l-48 48 48 48c8 8 24 14 35 14h313c34 0 62-28 62-62s-28-63-62-63z m53 223c-8-8-24-14-36-14h-392c-35 0-63 28-63 62s28 63 63 63h392c12 0 28-7 36-15l51-48-51-48z" horiz-adv-x="1000" />

<glyph glyph-name="divide" unicode="&#xe851;" d="M750 433h-500c-46 0-83-37-83-83s37-83 83-83h500c46 0 83 37 83 83s-37 83-83 83z" horiz-adv-x="1000" />

<glyph glyph-name="divide-outline" unicode="&#xe852;" d="M500 496c-69 0-125 56-125 125s56 125 125 125 125-56 125-125-56-125-125-125z m0 167c-23 0-42-19-42-42s19-42 42-42 42 19 42 42-19 42-42 42z m0-709c-69 0-125 56-125 125s56 125 125 125 125-56 125-125-56-125-125-125z m0 167c-23 0-42-19-42-42s19-41 42-41 42 18 42 41-19 42-42 42z m250 104h-500c-69 0-125 56-125 125s56 125 125 125h500c69 0 125-56 125-125s-56-125-125-125z m-500 167c-23 0-42-19-42-42s19-42 42-42h500c23 0 42 19 42 42s-19 42-42 42h-500z" horiz-adv-x="1000" />

<glyph glyph-name="document" unicode="&#xe853;" d="M821 546l-166 167c-8 8-19 12-30 12h-333c-69 0-125-56-125-125v-500c0-69 56-125 125-125h416c69 0 125 56 125 125v417c0 11-4 21-12 29z m-88-29h-45c-35 0-63 28-63 62v45l108-107z m-25-459h-416c-23 0-42 19-42 42v500c0 23 19 42 42 42h291v-63c0-57 47-104 105-104h62v-375c0-23-19-42-42-42z" horiz-adv-x="1000" />

<glyph glyph-name="document-add" unicode="&#xe854;" d="M625 350h-83v83c0 23-19 42-42 42s-42-19-42-42v-83h-83c-23 0-42-19-42-42s19-41 42-41h83v-84c0-23 19-41 42-41s42 18 42 41v84h83c23 0 42 18 42 41s-19 42-42 42z m196 196l-166 167c-8 8-19 12-30 12h-333c-69 0-125-56-125-125v-500c0-69 56-125 125-125h416c69 0 125 56 125 125v417c0 11-4 21-12 29z m-88-29h-45c-35 0-63 28-63 62v45l108-107z m-25-459h-416c-23 0-42 19-42 42v500c0 23 19 42 42 42h291v-63c0-57 47-104 105-104h62v-375c0-23-19-42-42-42z" horiz-adv-x="1000" />

<glyph glyph-name="document-delete" unicode="&#xe855;" d="M821 546l-166 167c-8 8-19 12-30 12h-333c-69 0-125-56-125-125v-500c0-69 56-125 125-125h416c69 0 125 56 125 125v417c0 11-4 21-12 29z m-88-29h-45c-35 0-63 28-63 62v45l108-107z m-25-459h-416c-23 0-42 19-42 42v500c0 23 19 42 42 42h291v-63c0-57 47-104 105-104h62v-375c0-23-19-42-42-42z m-83 209h-250c-23 0-42 18-42 41s19 42 42 42h250c23 0 42-19 42-42s-19-41-42-41z" horiz-adv-x="1000" />

<glyph glyph-name="document-text" unicode="&#xe856;" d="M708-25h-416c-69 0-125 56-125 125v500c0 69 56 125 125 125h416c69 0 125-56 125-125v-500c0-69-56-125-125-125z m-416 667c-23 0-42-19-42-42v-500c0-23 19-42 42-42h416c23 0 42 19 42 42v500c0 23-19 42-42 42h-416z m375-250h-334c-11 0-20 9-20 21s9 20 20 20h334c11 0 21-9 21-20s-10-21-21-21z m0 125h-334c-11 0-20 9-20 21s9 20 20 20h334c11 0 21-9 21-20s-10-21-21-21z m0-250h-334c-11 0-20 9-20 21s9 20 20 20h334c11 0 21-9 21-20s-10-21-21-21z m0-125h-334c-11 0-20 9-20 21s9 20 20 20h334c11 0 21-9 21-20s-10-21-21-21z" horiz-adv-x="1000" />

<glyph glyph-name="download" unicode="&#xe857;" d="M696 542c-8 7-18 11-29 11s-22-4-30-11l-95-96v279c0 23-19 42-42 42s-42-19-42-42v-279l-95 96c-8 7-18 12-30 12s-21-5-29-12c-16-17-16-43 0-59l196-195 196 195c16 16 16 42 0 59z m179-359c0 5-1 9-2 14l-83 250c-6 17-22 28-40 28h-9c-4-8-9-15-15-22l-62-61h56l70-209h-579l69 209h56l-62 61c-6 7-11 14-15 22h-9c-18 0-34-11-39-28l-84-250c-1-5-1-9-1-14-1 0-1-208-1-208 0-23 19-42 42-42h666c23 0 42 19 42 42 0 0 0 208 0 208z" horiz-adv-x="1000" />

<glyph glyph-name="download-outline" unicode="&#xe858;" d="M874 142c0 4 0 9-1 13l-83 250c-6 17-22 28-40 28h-23l28 29c49 48 49 128 0 176-34 34-86 45-130 30v57c0 69-56 125-125 125s-125-56-125-125v-57c-44 15-96 4-130-30-49-48-49-128 0-176l28-29h-23c-18 0-34-11-39-28l-84-250c-1-4-1-9-1-13-1 0-1-209-1-209 0-23 19-41 42-41h666c23 0 42 18 42 41 0 0 0 209-1 209z m-570 437c8 8 18 13 29 13s22-5 30-13l95-95v241c0 23 19 42 42 42s42-19 42-42v-241l95 95c16 16 43 16 59 0 16-16 16-42 0-58l-196-196-196 196c-16 16-16 42 0 58z m-24-229h77l143-142 143 142h77l70-208h-579l69 208z m512-375h-584v125h584v-125z" horiz-adv-x="1000" />

<glyph glyph-name="dropbox" unicode="&#xe859;" d="M125 313l221-146 154 129-221 137z m221 387l-221-146 154-121 221 138z m529-146l-221 146-154-129 221-138z m-375-258l154-129 221 146-154 120z m0-50l-154-129-67 46v-50l221-134 221 134v50l-67-46z" horiz-adv-x="1000" />

<glyph glyph-name="edit" unicode="&#xe85a;" d="M898 628l-120 120c-12 13-28 19-44 19-16 0-32-6-44-19l-148-148h-375c-23 0-42-19-42-42v-541c0-23 19-42 42-42h541c23 0 42 19 42 42v375l148 148c13 12 19 28 19 44s-6 32-19 44z m-419-389l-90 90 262 262 90-90-262-262z m-106 56l73-72-71 2-2 70z m294-237h-459v459h250l-132-133c-12-12-20-34-26-53-7-21-8-44-8-62v-127h127c18 0 46 4 66 12 19 8 37 14 49 26l133 128v-250z m104 472l-91 91 54 54 91-91-54-54z" horiz-adv-x="1000" />

<glyph glyph-name="eject" unicode="&#xe85b;" d="M542 121c-104 0-188 84-188 187 0 23-18 42-41 42s-42-19-42-42c0-149 121-270 271-270s271 121 271 270-122 271-271 271c-23 0-42-18-42-41s19-42 42-42c103 0 187-84 187-188s-84-187-187-187z m-98 562c23 0 42-18 42-41s-19-42-42-42h-135l71-71 171-171c16-16 16-42 0-59-8-7-19-12-30-12s-21 5-29 12l-171 171-71 71v-135c0-23-19-42-42-42s-41 19-41 42v277h277" horiz-adv-x="1000" />

<glyph glyph-name="eject-outline" unicode="&#xe85c;" d="M667 494v64c0 46-38 84-84 84h-416v-417c0-46 37-83 83-83h44c38-121 152-209 284-209 161 0 294 126 294 287 0 132-86 239-205 274z m-334-78v-135c0-23-18-42-41-42s-42 19-42 42v277h277c23 0 42-18 42-41s-19-42-42-42h-135l200-200c17-16 17-43 0-59-8-8-18-12-29-12-11 0-22 4-30 12l-200 200z m250-401c-114 0-208 95-208 209 0 30 0 58 9 83l120-120c16-17 37-25 59-25s42 8 59 25c32 32 32 85 0 118l-107 107c21 9 44 16 68 16 115 0 209-91 209-206 0-114-94-207-209-207z" horiz-adv-x="1000" />

<glyph glyph-name="equals" unicode="&#xe85d;" d="M750 558h-500c-46 0-83-37-83-83s37-83 83-83h500c46 0 83 37 83 83s-37 83-83 83z m0-291h-500c-46 0-83-38-83-84s37-83 83-83h500c46 0 83 37 83 83s-37 84-83 84z" horiz-adv-x="1000" />

<glyph glyph-name="equals-outline" unicode="&#xe85e;" d="M750 350h-500c-69 0-125 56-125 125s56 125 125 125h500c69 0 125-56 125-125s-56-125-125-125z m-500 167c-23 0-42-19-42-42s19-42 42-42h500c23 0 42 19 42 42s-19 42-42 42h-500z m500-459h-500c-69 0-125 56-125 125s56 125 125 125h500c69 0 125-56 125-125s-56-125-125-125z m-500 167c-23 0-42-19-42-42s19-41 42-41h500c23 0 42 18 42 41s-19 42-42 42h-500z" horiz-adv-x="1000" />

<glyph glyph-name="export" unicode="&#xe85f;" d="M333 163v-21c71 107 150 164 250 166v-125c0-23 22-41 48-41 15 0 28 6 37 16 80 85 249 255 249 255s-169 170-249 255c-9 9-22 15-37 15-26 0-48-18-48-41v-125c-194 0-250-203-250-354z m-125-188h584c23 0 41 19 41 42v252c-27-29-56-58-83-86v-125h-500v500h292v84h-334c-23 0-41-19-41-42v-583c0-23 18-42 41-42z" horiz-adv-x="1000" />

<glyph glyph-name="export-outline" unicode="&#xe860;" d="M946 442c-1 2-169 171-249 256-17 17-42 27-66 27-49 0-89-37-89-83h-334c-23 0-41-19-41-42v-583c0-23 18-42 41-42h584c23 0 41 19 41 42v252c60 60 112 113 113 114 16 16 16 43 0 59z m-309-256l-6-3-6 2v165h-42c-73-1-139-28-198-82 18 93 67 207 198 207h42v165l6 2 6-2c60-64 169-175 221-227-10-11-181-185-221-227z m-387-128v500h333v-41c-194 0-250-203-250-354v-21c71 107 150 164 250 166v-125c0-23 22-41 48-41 15 0 28 6 37 16 22 24 52 54 82 85v-185h-500z" horiz-adv-x="1000" />

<glyph glyph-name="eye" unicode="&#xe861;" d="M909 332c-3 5-86 123-199 203-59 42-134 65-210 65-76 0-150-23-210-65-113-80-196-198-199-203-10-14-10-33 0-47 3-5 86-123 199-204 60-41 134-64 210-64 76 0 151 23 210 65 113 80 196 198 199 203 10 14 10 33 0 47z m-409-169c-81 0-146 65-146 145 0 81 65 146 146 146 80 0 146-65 146-146 0-80-66-145-146-145z m83 145c0-46-37-83-83-83-46 0-83 37-83 83 0 46 37 84 83 84 46 0 83-38 83-84z" horiz-adv-x="1000" />

<glyph glyph-name="eye-outline" unicode="&#xe862;" d="M500 475c51 0 99-15 137-42 55-38 102-88 132-125-30-36-77-86-132-124-38-27-86-42-137-42s-99 15-137 42c-55 38-102 88-132 124 30 37 77 87 132 125 38 27 87 42 137 42m0 83c-70 0-135-21-185-57-110-77-190-193-190-193s80-115 190-192c50-36 115-58 185-58s135 22 186 58c109 77 189 192 189 192s-80 116-189 193c-51 36-115 57-186 57z m0-208c-23 0-42-19-42-42 0-23 19-41 42-41 23 0 42 18 42 41 0 23-19 42-42 42z m0-167c-69 0-125 56-125 125s56 125 125 125 125-56 125-125-56-125-125-125z m0 209c-46 0-83-38-83-84s37-83 83-83 83 37 83 83-37 84-83 84z" horiz-adv-x="1000" />

<glyph glyph-name="feather" unicode="&#xe863;" d="M487 808l-8 1-7-1c-201-37-347-212-347-416 0-193 130-359 313-409v-50c0-23 18-41 41-41s42 18 42 41v50c183 50 312 216 312 409 0 204-145 379-346 416z m34-737v487c0 23-19 42-42 42s-41-19-41-42v-487c-133 45-225 169-229 312l131-131c4-4 9-6 14-6s11 2 15 6c8 8 8 21 0 29l-157 157c5 41 18 79 36 113l91-91c5-4 10-6 15-6s11 2 15 6c8 8 8 22 0 30l-98 98c48 68 122 118 208 136 87-18 160-68 209-136l-99-98c-8-8-8-22 0-30 5-4 10-6 15-6s11 2 15 6l91 91c18-34 31-72 37-113l-158-157c-8-8-8-21 0-29 5-4 10-6 15-6s11 2 15 6l131 131c-4-143-97-267-229-312z" horiz-adv-x="1000" />

<glyph glyph-name="film" unicode="&#xe864;" d="M333 517v-292h334v292h-334z m292-250h-250v208h250v-208z m83 500h-125v-84h-166v84h-125c-69 0-125-56-125-125v-542c0-69 56-125 125-125h125v83h166v-83h125c69 0 125 56 125 125v542c0 69-56 125-125 125z m42-167c-23 0-42-19-42-42s19-41 42-41v-42c-23 0-42-19-42-42s19-41 42-41v-42c-23 0-42-19-42-42s19-41 42-41v-42c-23 0-42-19-42-42s19-41 42-41v-42c0-23-19-42-42-42h-41v84h-334v-84h-41c-23 0-42 19-42 42v42c23 0 42 18 42 41s-19 42-42 42v42c23 0 42 18 42 41s-19 42-42 42v42c23 0 42 18 42 41s-19 42-42 42v42c23 0 42 18 42 41s-19 42-42 42v42c0 23 19 41 42 41h41v-83h334v83h41c23 0 42-18 42-41v-42z" horiz-adv-x="1000" />

<glyph glyph-name="filter" unicode="&#xe865;" d="M792 600h-584c-45 0-58-25-25-58l175-175c34-34 59-96 59-142v-208l166 83v146c0 33 25 87 59 121l175 175c33 33 21 58-25 58z" horiz-adv-x="1000" />

<glyph glyph-name="flag" unicode="&#xe866;" d="M766 670c-16 7-33 3-45-9-53-53-139-53-191 0-86 85-224 85-309 0-8-8-13-18-13-29v-542c0-23 19-42 42-42s42 19 42 42v190c53 41 130 38 179-11 85-85 223-85 309 0 7 8 12 18 12 29v334c0 17-10 32-26 38z" horiz-adv-x="1000" />

<glyph glyph-name="flag-outline" unicode="&#xe867;" d="M766 670c-16 7-33 3-45-9-53-53-139-53-191 0-86 85-224 85-309 0-8-8-13-18-13-29v-542c0-23 19-42 42-42s42 19 42 42v190c53 41 130 38 179-11 85-85 223-85 309 0 7 8 12 18 12 29v334c0 17-10 32-26 38z m-295-68c64-64 158-80 237-47v-97c-60-38-141-31-193 22-61 60-150 72-223 38v95c53 42 130 38 179-11z m59-274c-43 42-99 64-155 64-28 0-57-6-83-17v97c60 38 141 31 193-22 39-38 89-57 140-57 29 0 57 6 83 19v-95c-53-42-130-38-178 11z" horiz-adv-x="1000" />

<glyph glyph-name="flash" unicode="&#xe868;" d="M729 349l-176 102 89 214c2 5 4 12 4 18 0 23-19 42-42 42-10 0-19-3-25-9l-3-2-313-296c-9-9-14-22-13-35 2-13 9-25 21-32l177-102-91-216c-7-18-1-40 15-51 7-5 16-7 24-7 10 0 21 4 29 11l312 296c10 9 14 22 13 35-2 14-9 25-21 32z" horiz-adv-x="1000" />

<glyph glyph-name="flash-outline" unicode="&#xe869;" d="M604 683h0m0 0l-104-250 208-120-312-296 104 250-208 121 312 295m0 84c-23-1-43-9-57-23l-313-296c-19-18-28-44-25-70 3-26 18-49 41-63l145-84-76-182c-15-37-3-79 30-101 14-10 30-15 47-15 21 0 41 8 57 23l313 296c19 18 28 44 25 70-3 26-18 50-41 63l-145 84 75 179c5 11 8 23 8 35 0 46-37 84-84 84z" horiz-adv-x="1000" />

<glyph glyph-name="flow-children" unicode="&#xe86a;" d="M708 183c-54 0-100-34-117-83h-133c-69 0-125 56-125 125v126c35-26 78-43 125-43h133c17-48 63-83 117-83 69 0 125 56 125 125s-56 125-125 125c-54 0-100-35-117-83h-133c-69 0-125 56-125 125v7c49 18 84 63 84 118 0 69-56 125-125 125s-125-56-125-125c0-55 35-100 83-118v-299c0-115 94-208 208-208h133c17-49 63-84 117-84 69 0 125 56 125 125s-56 125-125 125z m0 209c23 0 42-19 42-42s-19-42-42-42-41 19-41 42 18 42 41 42z m-416 291c23 0 41-18 41-41s-18-42-41-42-42 19-42 42 19 41 42 41z m416-666c-23 0-41 18-41 41s18 42 41 42 42-19 42-42-19-41-42-41z" horiz-adv-x="1000" />

<glyph glyph-name="flow-merge" unicode="&#xe86b;" d="M750 176v77c0 80-65 146-146 146-34 0-62 28-62 62v63c48 18 83 63 83 118 0 69-56 125-125 125s-125-56-125-125c0-55 35-100 83-118v-63c0-34-28-62-62-62-81 0-146-66-146-146v-77c-48-18-83-63-83-118 0-69 56-125 125-125s125 56 125 125c0 55-35 100-84 118v77c0 34 28 62 63 62 41 0 78 17 104 44 27-27 63-44 104-44 35 0 63-28 63-62v-77c-49-18-84-63-84-118 0-69 56-125 125-125s125 56 125 125c0 55-35 100-83 118z m-458-159c-23 0-42 18-42 41s19 42 42 42 41-19 41-42-18-41-41-41z m208 666c23 0 42-18 42-41s-19-42-42-42-42 19-42 42 19 41 42 41z m208-666c-23 0-41 18-41 41s18 42 41 42 42-19 42-42-19-41-42-41z" horiz-adv-x="1000" />

<glyph glyph-name="flow-parallel" unicode="&#xe86c;" d="M750 176v348c48 18 83 63 83 118 0 69-56 125-125 125s-125-56-125-125c0-55 35-100 84-118v-348c-49-18-84-63-84-118 0-69 56-125 125-125s125 56 125 125c0 55-35 100-83 118z m-42 507c23 0 42-18 42-41s-19-42-42-42-41 19-41 42 18 41 41 41z m0-666c-23 0-41 18-41 41s18 42 41 42 42-19 42-42-19-41-42-41z m-291 625c0 69-56 125-125 125s-125-56-125-125c0-55 35-100 83-118v-348c-48-18-83-63-83-118 0-69 56-125 125-125s125 56 125 125c0 55-35 100-84 118v348c49 18 84 63 84 118z m-125 41c23 0 41-18 41-41s-18-42-41-42-42 19-42 42 19 41 42 41z m0-666c-23 0-42 18-42 41s19 42 42 42 41-19 41-42-18-41-41-41z" horiz-adv-x="1000" />

<glyph glyph-name="flow-switch" unicode="&#xe86d;" d="M333 176v28c0 36 22 67 54 86-28 11-53 27-76 47-38-34-61-81-61-133v-28c-48-18-83-63-83-118 0-69 56-125 125-125s125 56 125 125c0 55-35 100-84 118z m-41-159c-23 0-42 18-42 41s19 42 42 42 41-19 41-42-18-41-41-41z m375 507v-14c0-41-23-77-56-99 27-11 53-26 76-45 39 36 63 87 63 144v14c48 18 83 63 83 118 0 69-56 125-125 125s-125-56-125-125c0-55 35-100 84-118z m41 159c23 0 42-18 42-41s-19-42-42-42-41 19-41 42 18 41 41 41z m39-506c-17 121-121 215-247 215-81 0-148 57-163 133 46 19 80 64 80 117 0 69-56 125-125 125s-125-56-125-125c0-56 36-102 86-118 17-122 121-216 247-216 81 0 148-57 163-133-46-18-80-64-80-117 0-69 56-125 125-125s125 56 125 125c0 56-36 102-86 119z m-455 506c23 0 41-18 41-41s-18-42-41-42-42 19-42 42 19 41 42 41z m416-666c-23 0-41 18-41 41s18 42 41 42 42-19 42-42-19-41-42-41z" horiz-adv-x="1000" />

<glyph glyph-name="folder" unicode="&#xe86e;" d="M750 600h-250c0 46-37 83-83 83h-167c-69 0-125-56-125-125v-416c0-69 56-125 125-125h500c69 0 125 56 125 125v333c0 69-56 125-125 125z m-500 0h167c0-46 37-83 83-83h250c23 0 42-19 42-42h-584v83c0 23 19 42 42 42z m500-500h-500c-23 0-42 19-42 42v291h584v-291c0-23-19-42-42-42z" horiz-adv-x="1000" />

<glyph glyph-name="folder-add" unicode="&#xe86f;" d="M750 600h-250c0 46-37 83-83 83h-167c-69 0-125-56-125-125v-416c0-69 56-125 125-125h500c69 0 125 56 125 125v333c0 69-56 125-125 125z m0-500h-500c-23 0-42 19-42 42v291h167c12 0 21 10 21 21s-9 21-21 21h-167v83c0 23 19 42 42 42h167c0-46 37-83 83-83h250c23 0 42-19 42-42h-167c-11 0-21-9-21-21s10-21 21-21h167v-291c0-23-19-42-42-42z m-125 250h-83v83c0 23-19 42-42 42s-42-19-42-42v-83h-83c-23 0-42-19-42-42s19-41 42-41h83v-84c0-23 19-41 42-41s42 18 42 41v84h83c23 0 42 18 42 41s-19 42-42 42z" horiz-adv-x="1000" />

<glyph glyph-name="folder-delete" unicode="&#xe870;" d="M750 600h-250c0 46-37 83-83 83h-167c-69 0-125-56-125-125v-416c0-69 56-125 125-125h500c69 0 125 56 125 125v333c0 69-56 125-125 125z m-500 0h167c0-46 37-83 83-83h250c23 0 42-19 42-42h-584v83c0 23 19 42 42 42z m500-500h-500c-23 0-42 19-42 42v291h584v-291c0-23-19-42-42-42z m-125 167h-250c-23 0-42 18-42 41s19 42 42 42h250c23 0 42-19 42-42s-19-41-42-41z" horiz-adv-x="1000" />

<glyph glyph-name="folder-open" unicode="&#xe871;" d="M929 517h-100c-16 50-62 83-116 83h-250c0 46-38 83-84 83h-171c-70 0-125-54-125-125v-416c0-71 55-125 125-125h500c71 0 142 54 159 125l91 333c5 25-8 42-29 42z m-762-42v83c0 25 16 42 41 42h167c0-46 38-83 83-83h250c25 0 42-17 42-42h-462c-25 0-46-17-55-42l-66-262v304z m621-312c-9-34-46-63-80-63h-500s-16 8-8 33l79 292c0 4 9 8 13 8h571l-75-270z" horiz-adv-x="1000" />

<glyph glyph-name="gift" unicode="&#xe872;" d="M792 517h-98c9 19 14 40 14 62 0 81-65 146-145 146-41 0-78-17-105-44-26 27-63 44-104 44-80 0-146-65-146-146 0-22 6-43 15-62h-98c-23 0-42-19-42-42v-167c0-23 19-41 42-41v-209c0-69 56-125 125-125h417c69 0 125 56 125 125v209c23 0 41 18 41 41v167c0 23-18 42-41 42z m-42-167h-208v83h208v-83z m-333 208h83v-41h-83v41z m83-125v-83h-83v83h83z m63 209c34 0 62-28 62-63s-28-62-62-62c-8 0-15 1-21 4v37c0 22-17 39-38 41 8 25 31 43 59 43z m-271-63c0 35 28 63 62 63 28 0 51-18 59-43-21-2-38-19-38-41v-37c-6-3-13-4-21-4-34 0-62 28-62 62z m83-146v-83h-208v83h208z m-125-416c-23 0-42 18-42 41v250h167v-291h-125z m167 0v291h83v-291h-83z m250 0h-125v291h166v-250c0-23-18-41-41-41z" horiz-adv-x="1000" />

<glyph glyph-name="globe" unicode="&#xe873;" d="M458 17h-166c-23 0-42-19-42-42s19-42 42-42h416c23 0 42 19 42 42s-19 42-42 42h-166v51c68 15 131 49 182 100 70 71 109 165 109 265 0 87-28 168-82 235l29 28c16 16 16 42 0 59-17 16-43 16-59 0l-86-86 30-29c55-55 85-129 85-207s-30-151-85-206-129-85-207-85-151 30-206 85c-16 16-42 16-59 0-16-16-16-42 0-59 71-71 165-110 265-110v-41z m0 666c69 0 132-28 177-73 45-45 73-108 73-177 0-69-28-131-73-176-45-46-108-74-177-74-69 0-131 28-176 74-46 45-74 107-74 176s28 132 74 177c45 45 107 73 176 73z" horiz-adv-x="1000" />

<glyph glyph-name="globe-outline" unicode="&#xe874;" d="M458 600c92 0 167-75 167-167s-75-166-167-166c-91 0-166 74-166 166s75 167 166 167m0 83c-138 0-250-112-250-250s112-250 250-250c138 0 250 112 250 250 0 138-112 250-250 250z m250-666h-166v51c68 15 131 49 182 100 70 71 109 165 109 265 0 86-28 168-82 234l29 29c16 16 16 42 0 58-17 17-43 17-59 1l-86-86 30-29c55-55 85-129 85-207s-30-151-85-206-129-85-207-85-151 30-206 85c-16 16-42 16-59 0-16-16-16-42 0-59 71-71 165-110 265-110v-41h-166c-23 0-42-19-42-42s19-42 42-42h416c23 0 42 19 42 42s-19 42-42 42z" horiz-adv-x="1000" />

<glyph glyph-name="group" unicode="&#xe875;" d="M500 267c58 0 110 23 147 61 38 37 61 90 61 147s-23 110-61 147c-37 38-89 61-147 61s-110-23-147-61c-38-37-61-89-61-147s23-110 61-147c37-38 90-61 147-61z m333-42c29 0 55 12 74 31 19 18 31 44 31 73 0 29-12 55-31 74-19 19-45 30-74 30-28 0-54-11-73-30-19-19-31-45-31-74 0-29 12-55 31-73s45-31 73-31z m0-25c-55 0-97-16-121-40-47 38-120 65-212 65-94 0-166-27-212-65-25 23-67 40-121 40-91 0-146-45-146-90 0-23 55-46 146-46 25 0 47 2 67 6l-1-12c0-41 100-83 267-83 157 0 267 42 267 83l0 11c19-3 41-5 66-5 86 0 146 23 146 46 0 45-57 90-146 90z m-666 25c28 0 55 12 73 31 19 18 31 44 31 73 0 29-12 55-31 74-18 19-45 30-73 30-29 0-55-11-74-30-19-19-30-45-30-74 0-29 11-55 30-73 19-19 45-31 74-31z" horiz-adv-x="1000" />

<glyph glyph-name="group-outline" unicode="&#xe876;" d="M500 267c115 0 208 93 208 208s-93 208-208 208-208-93-208-208 93-208 208-208z m0 333c69 0 125-56 125-125s-56-125-125-125-125 56-125 125 56 125 125 125z m333-375c58 0 105 47 105 104 0 58-47 104-105 104-57 0-104-46-104-104 0-57 47-104 104-104z m0 167c35 0 63-28 63-63s-28-62-63-62-62 28-62 62 28 63 62 63z m0-192c-55 0-97-16-121-40-47 38-120 65-212 65-94 0-166-27-212-65-25 23-67 41-121 41-91 0-146-46-146-91 0-23 55-46 146-46 25 0 47 2 67 6l-1-12c0-41 100-83 267-83 157 0 267 42 267 83l0 11c19-3 41-5 66-5 86 0 146 23 146 46 0 45-57 90-146 90z m-666-94c-55 0-86 8-101 15 10 16 42 38 101 38 46 0 76-15 92-30l-10-14c-19-5-46-9-82-9z m333-48c-90 0-146 13-174 24 21 28 80 60 174 60 90 0 150-32 173-60-32-11-90-24-173-24z m333 48c-38 0-64 4-82 9-3 5-6 10-10 15 15 15 44 29 92 29 56 0 90-21 101-38-17-7-51-15-101-15z m-666 119c57 0 104 47 104 104 0 58-47 104-104 104-58 0-104-46-104-104 0-57 46-104 104-104z m0 167c34 0 62-28 62-63s-28-62-62-62-63 28-63 62 28 63 63 63z" horiz-adv-x="1000" />

<glyph glyph-name="headphones" unicode="&#xe877;" d="M875 308c0 207-168 375-375 375s-375-168-375-375v-108l1-5c-1-10-1-20-1-32v-84c0-80 65-146 146-146s146 66 146 146v84c0 63-35 116-83 136 4 89 77 159 166 159s162-70 166-159c-48-20-83-73-83-136v-84c0-80 66-146 146-146s146 66 146 146v84c0 12 0 22-1 32l1 5v108z m-667 0c0 66 23 127 60 176l37-37c-31-38-51-86-54-139-1 0-1-41-1-41h-42v41z m125-229c0-34-28-62-62-62s-63 28-63 62v84c0 27 3 49 5 62h79c19 0 41-26 41-62v-84z m324 389l-15-14c-38 38-88 59-142 59s-104-21-142-59l-15 14-48 48-26 26c62 62 144 96 231 96 87 0 169-34 231-96l-26-26-48-48z m135-389c0-34-28-62-63-62s-62 28-62 62v84c0 36 22 62 41 62h79c2-13 5-35 5-62v-84z m0 188h-42v41c-4 53-24 101-55 139l37 37c37-49 60-109 60-176v-41z" horiz-adv-x="1000" />

<glyph glyph-name="heart" unicode="&#xe878;" d="M500 418c0 100-82 182-182 182s-183-82-183-182c0-47 7-116 73-183l292-218s225 152 292 218 73 136 73 183c0 100-82 182-183 182s-182-82-182-182" horiz-adv-x="1000" />

<glyph glyph-name="heart-full-outline" unicode="&#xe879;" d="M92 458c0-54 8-137 83-212 67-67 288-217 296-225 8-4 17-8 25-8s17 4 25 8c8 8 229 154 296 225 75 75 83 158 83 212 0 125-100 225-225 225-67 0-133-37-175-95-42 58-108 95-183 95-121 0-225-100-225-225z" horiz-adv-x="1000" />

<glyph glyph-name="heart-half-outline" unicode="&#xe87a;" d="M92 458c0-54 8-137 83-212 67-67 288-217 296-225 8-4 17-8 25-8s17 4 25 8c8 8 229 154 296 225 75 75 83 158 83 212 0 125-100 225-225 225-67 0-133-37-175-95-42 58-108 95-183 95-121 0-225-100-225-225z m408-41c25 0 42 16 42 41 0 80 62 142 141 142s142-62 142-142c0-45-8-100-62-154-50-50-205-158-263-196v309z" horiz-adv-x="1000" />

<glyph glyph-name="heart-outline" unicode="&#xe87b;" d="M500 17c-8 0-16 2-23 7-10 6-230 155-298 224-76 76-85 157-85 211 0 124 100 224 224 224 75 0 141-37 182-94 41 57 107 94 182 94 124 0 224-100 224-224 0-54-9-135-85-211-68-69-288-218-298-224-7-5-15-7-23-7z m-182 583c-78 0-141-63-141-141 0-45 7-99 61-152 50-51 203-158 262-198 59 40 212 147 262 198 54 53 61 107 61 152 0 78-63 141-141 141s-140-63-140-141c0-23-19-41-42-41s-42 18-42 41c0 78-63 141-140 141z" horiz-adv-x="1000" />

<glyph glyph-name="home" unicode="&#xe87c;" d="M500 725s-258-222-402-343c-8-8-15-19-15-32 0-23 19-42 42-42h83v-291c0-23 19-42 42-42h125c23 0 42 19 42 42v166h166v-166c0-23 19-42 42-42h125c23 0 42 19 42 42v291h83c23 0 42 19 42 42 0 13-7 24-16 32-143 121-401 343-401 343z" horiz-adv-x="1000" />

<glyph glyph-name="home-outline" unicode="&#xe87d;" d="M928 414c-142 119-398 340-401 343l-27 23-27-23c-3-3-259-224-403-344-18-16-28-39-28-63 0-46 37-83 83-83h42v-250c0-46 37-84 83-84h500c46 0 83 38 83 84v250h42c46 0 83 37 83 83 0 25-11 48-30 64z m-345-397h-166v208h166v-208z m167 333l0-333h-125v250h-250v-250h-125v333h-125c115 96 305 260 375 320 70-60 260-224 375-320l-125 0z" horiz-adv-x="1000" />

<glyph glyph-name="html5" unicode="&#xe87e;" d="M546 704l29-46 29 46v-62h42v125h-42l-29-46-25 46h-46v-125h42z m221-62v41h-59v84h-41v-125z m-359 0h42v83h38v42h-117v-42h37z m-133 41h38v-41h41v125h-41v-42h-38v42h-42v-125h42z m-67-83l50-600 242-67 242 67 50 600h-584z m471-192h-283l8-75h267l-21-229-150-41-150 41-12 121h75l4-62 83-21 83 21 9 95h-259l-20 221h375l-9-71z" horiz-adv-x="1000" />

<glyph glyph-name="chart-area" unicode="&#xe87f;" d="M833 600c0 25-10 49-31 65-36 29-88 23-117-13l-116-145-102 76c-36 27-87 21-115-14l-167-209c-12-15-18-33-18-52v-125h666v417z m0-542h-666c-23 0-42-18-42-41s19-42 42-42h666c23 0 42 19 42 42s-19 41-42 41z" horiz-adv-x="1000" />

<glyph glyph-name="chart-area-outline" unicode="&#xe880;" d="M833 142h-666c-23 0-42 18-42 41v125c0 29 10 56 27 78l167 209c41 51 120 61 173 22l70-53 91 114c23 30 59 47 97 47 28 0 56-10 78-27 30-24 47-60 47-98v-417c0-23-19-41-42-41z m-625 83h584v375c0 13-6 25-16 33-9 7-19 9-26 9-13 0-25-6-32-16l-117-145c-14-18-39-21-57-7l-102 76c-18 13-44 10-58-7l-166-209c-8-9-10-19-10-26v-83z m625-250h-666c-23 0-42 19-42 42s19 41 42 41h666c23 0 42-18 42-41s-19-42-42-42z" horiz-adv-x="1000" />

<glyph glyph-name="chart-bar" unicode="&#xe881;" d="M583 683c0 46-37 84-83 84s-83-38-83-84v-500h166v500z m209-166c0 46-38 83-84 83s-83-37-83-83v-334h167v334z m-417-125c0 46-37 83-83 83s-84-37-84-83v-209h167v209z m417-334h-584c-23 0-41-18-41-41s18-42 41-42h584c23 0 41 19 41 42s-18 41-41 41z" horiz-adv-x="1000" />

<glyph glyph-name="chart-bar-outline" unicode="&#xe882;" d="M708 642c-32 0-61-13-83-33v74c0 69-56 125-125 125s-125-56-125-125v-199c-22 20-51 33-83 33-69 0-125-56-125-125v-250h666v375c0 69-56 125-125 125z m-208 83c23 0 42-19 42-42v-458h-84v458c0 23 19 42 42 42z m-167-500h-83v167c0 23 19 41 42 41s41-18 41-41v-167z m417 0h-83v292c0 23 18 41 41 41s42-18 42-41v-292z m42-250h-584c-23 0-41 19-41 42s18 41 41 41h584c23 0 41-18 41-41s-18-42-41-42z" horiz-adv-x="1000" />

<glyph glyph-name="chart-line" unicode="&#xe883;" d="M198 202c15-13 34-19 52-19 24 0 49 11 65 32l116 145 102-77c36-27 87-20 115 15l167 208c29 36 23 89-13 118-36 28-88 22-117-13l-116-146-102 77c-36 27-87 20-115-15l-167-208c-29-36-23-89 13-117z m10-227h584c23 0 41 19 41 42s-18 41-41 41h-584c-23 0-41-18-41-41s18-42 41-42z" horiz-adv-x="1000" />

<glyph glyph-name="chart-line-outline" unicode="&#xe884;" d="M250 142c-28 0-56 9-78 27-26 21-42 51-46 84-4 33 6 66 26 92l167 208c41 51 120 61 173 22l70-52 91 113c23 30 59 47 97 47 28 0 56-9 78-27 26-21 43-51 46-84s-6-66-26-92l-167-208c-41-51-120-61-173-22l-69 52-91-113c-24-30-60-47-98-47z m167 375c-13 0-25-6-33-16l-166-208c-7-9-11-20-9-31 1-11 6-21 15-28 10-7 19-9 26-9 13 0 25 6 33 16l141 177 134-101c18-13 44-10 58 7l167 208c7 9 10 20 8 31-1 11-6 21-15 28-9 8-19 9-26 9-13 0-25-6-32-16l-142-176-134 100c-8 6-16 9-25 9z m375-542h-584c-23 0-41 19-41 42s18 41 41 41h584c23 0 41-18 41-41s-18-42-41-42z" horiz-adv-x="1000" />

<glyph glyph-name="chart-pie" unicode="&#xe885;" d="M484 268l204-206c17-16 42-15 54 5 37 58 58 127 58 201 0 88-31 170-82 234l-234-234z m-109-18v307c-141-21-250-142-250-289 0-162 131-293 292-293 65 0 125 22 174 59l-216 216z m306 341c16 16 15 42-4 55-52 36-112 62-177 73-23 5-42-13-42-36v-315l223 223z" horiz-adv-x="1000" />

<glyph glyph-name="chart-pie-outline" unicode="&#xe886;" d="M760 533l23 23c16 17 25 40 24 63-1 23-12 45-30 60-89 74-196 119-311 129l-8 0c-20 0-40-7-56-21-17-16-27-39-27-62v-93c-152-36-264-174-264-333 0-190 154-344 343-344 66 0 129 20 185 56 11-6 24-9 37-9l5 0c24 1 46 13 60 31 60 74 92 168 92 263 0 84-26 167-73 237z m-306-495c-143 0-259 117-259 261 0 130 96 238 222 256v-267l192-198c-43-32-97-52-155-52z m4 311v376c101-9 192-49 266-110l-266-266z m9-53l209 210c46-58 74-131 74-210 0-80-28-153-74-211l-209 211z" horiz-adv-x="1000" />

<glyph glyph-name="chevron-left" unicode="&#xe887;" d="M601 617c-33 33-86 33-118 0l-267-267 267-267c16-16 37-25 59-25s42 9 59 25c32 32 32 85 0 118l-150 149 150 149c32 33 32 86 0 118z" horiz-adv-x="1000" />

<glyph glyph-name="chevron-left-outline" unicode="&#xe888;" d="M542 17c-34 0-65 13-89 36l-296 297 296 297c48 47 130 47 177 0 24-24 37-55 37-89s-13-64-37-88l-120-120 120-120c24-23 37-55 37-88s-13-65-37-89c-23-23-55-36-88-36z m-268 333l238-238c16-15 43-15 59 0 8 8 12 19 12 30s-4 21-12 29l-179 179 179 179c8 8 12 18 12 29s-4 22-12 30c-16 16-43 16-59 0l-238-238z" horiz-adv-x="1000" />

<glyph glyph-name="chevron-right" unicode="&#xe889;" d="M358 617c-33-32-33-85 0-118l149-149-149-149c-33-33-33-86 0-118 16-16 37-25 59-25s42 9 59 25l267 267-267 267c-33 33-86 33-118 0z" horiz-adv-x="1000" />

<glyph glyph-name="chevron-right-outline" unicode="&#xe88a;" d="M417 17c-34 0-65 13-89 36-23 24-36 55-36 89s13 65 36 88l120 120-120 120c-23 24-36 55-36 88s13 65 36 89c48 47 130 47 177 0l297-297-297-297c-23-23-55-36-88-36z m0 583c-11 0-22-4-30-12-8-8-12-18-12-30s4-21 12-29l179-179-179-179c-8-8-12-18-12-29s4-22 12-30c16-16 43-15 59 0l238 238-238 238c-8 8-18 12-29 12z" horiz-adv-x="1000" />

<glyph glyph-name="image" unicode="&#xe88b;" d="M667 433c-84 0-125-125-188-125s-62 42-146 42c-83 0-125-167-125-167h584s-42 250-125 250z m166 292h-666c-46 0-84-37-84-83v-500c0-46 38-84 84-84h666c46 0 84 38 84 84v500c0 46-38 83-84 83z m0-583h-666v500h666v-500z" horiz-adv-x="1000" />

<glyph glyph-name="image-outline" unicode="&#xe88c;" d="M354 517c35 0 63-28 63-63s-28-62-63-62-62 28-62 62 28 63 62 63m0 41c-57 0-104-46-104-104s47-104 104-104 104 47 104 104-46 104-104 104z m313-208c18-2 53-75 74-167h-475c18 43 44 84 67 84 34 0 47-8 64-18 19-10 42-24 82-24 48 0 81 37 111 70 26 28 50 55 77 55m0 42c-84 0-125-125-188-125s-62 41-146 41c-83 0-125-166-125-166h584s-42 250-125 250z m250 208c0 46-38 83-84 83h-666c-46 0-84-37-84-83v-500c0-46 38-83 84-83h666c46 0 84 37 84 83v500z m-84-500h-666v500h667l-1-500z" horiz-adv-x="1000" />

<glyph glyph-name="infinity" unicode="&#xe88d;" d="M685 492c-48 0-93-19-127-52l-58-56-57 55c-34 34-79 53-127 53-49 0-94-19-128-53-34-34-52-79-52-127 0-48 18-93 52-127 34-34 79-53 128-53 48 0 93 19 126 52l58 56 57-55c34-34 80-53 128-53s93 19 127 53c34 34 53 79 53 127s-19 93-53 127c-34 34-79 53-127 53z m-316-234c-29-28-78-28-107 0-14 15-22 34-22 54 0 20 8 39 22 54 14 14 33 22 54 22s39-8 54-23l55-53-56-54z m369 0c-28-28-77-29-108 1l-55 53 56 54c29 28 79 28 107 0 15-15 23-34 23-54s-8-39-23-54z" horiz-adv-x="1000" />

<glyph glyph-name="infinity-outline" unicode="&#xe88e;" d="M685 492c48 0 93-19 127-53 34-34 53-79 53-127s-19-93-53-127c-34-34-79-53-127-53s-94 19-128 53l-57 55-58-56c-33-33-78-52-127-52-48 0-93 19-127 53-34 33-52 79-52 127s18 93 52 127c34 34 79 53 128 53 48 0 93-19 127-53l57-55 58 56c34 33 79 52 127 52m0 83c-70 0-136-27-185-75-48 48-114 75-184 75-71 0-137-27-187-77-49-50-77-116-77-186s28-137 77-186c50-50 116-78 187-78 70 0 135 27 184 76 49-48 115-76 185-76 70 0 136 28 186 78 50 49 77 115 77 186 0 70-27 136-77 186-50 50-116 77-186 77z m-369-229c9 0 17-4 25-11l24-23-25-24c-6-6-15-9-24-9-10 0-19 3-25 9-6 6-10 15-10 24 0 9 4 17 11 24 6 7 14 10 24 10m0 42c-21 0-40-8-54-22-14-15-22-34-22-54 0-20 8-39 22-54 14-14 34-21 54-21 19 0 39 7 53 21l56 54-55 53c-15 15-34 23-54 23z m369-43c9 0 18-3 24-9 6-6 10-15 10-24s-4-18-10-24c-6-6-15-10-24-10-10 0-19 4-26 11l-24 23 26 24c5 6 14 9 24 9m0 42c-20 0-39-7-54-21l-56-54 55-53c16-15 35-22 55-22 20 0 39 7 53 21 15 15 23 34 23 54s-8 39-23 54c-14 14-34 21-53 21z" horiz-adv-x="1000" />

<glyph glyph-name="info" unicode="&#xe88f;" d="M882 208l-246 411c-33 54-82 85-136 85s-103-31-136-85l-246-411c-18-30-28-62-28-92 0-23 6-47 18-67 27-47 78-74 142-74h500c64 0 115 27 142 74 12 20 18 42 18 66 0 30-9 63-28 93z m-382 290c35 0 65-29 65-65 0-35-29-64-65-64-35 0-65 29-65 64 0 36 29 65 65 65z m70-353c-1-1-33-38-86-38l-6 0c-21 1-39 11-49 26-13 20-15 47-5 76l17 51c9 28 0 33-5 35l-6 1c-10 0-25-6-29-8-4-3-10-2-13 2-3 5-3 10 0 14 2 1 37 41 93 38 21-2 39-11 49-27 13-19 15-46 5-76l-17-51c-10-28 0-33 5-35l5-1c11 0 25 6 30 8 5 3 10 2 13-2 3-3 3-9-1-13z" horiz-adv-x="1000" />

<glyph glyph-name="info-large" unicode="&#xe890;" d="M577 120c-1 0-24-8-44-8-11 0-15 2-17 3-7 5-20 14 3 59l41 83c25 49 29 97 11 134-15 31-44 52-80 59-14 3-27 4-40 4-77 0-129-45-131-47-8-6-10-17-5-26 5-8 16-12 25-9 0 0 23 8 43 8 11 0 16-3 17-3 7-5 20-15-2-59l-42-83c-24-49-28-97-10-134 15-31 43-52 80-59 13-3 27-4 40-4 77 0 129 45 131 46 8 7 9 18 4 27-5 8-15 12-24 9z" horiz-adv-x="1000" />

<glyph glyph-name="info-large-outline" unicode="&#xe891;" d="M593 183l23 46c34 67 38 134 11 189-5 11-12 20-19 29 59 26 100 85 100 153 0 92-74 167-166 167s-167-75-167-167c0-33 10-63 26-89-71-13-117-52-123-57-30-26-37-70-17-104 14-23 37-38 63-41l-23-46c-34-67-38-135-11-190 24-48 68-81 124-93 17-3 35-5 52-5 99 0 165 56 173 63 29 26 37 70 17 104-14 23-37 38-63 41z m-51 500c46 0 83-37 83-83s-37-83-83-83c-46 0-84 37-84 83s38 83 84 83z m-76-625c-11 0-23 1-36 4-68 14-97 81-55 164l42 83c21 41 19 68-5 85-7 5-18 7-28 7-24 0-50-9-50-9s47 41 117 41c11 0 23-1 35-3 69-14 97-81 56-164l-42-83c-21-41-20-68 4-85 8-5 19-7 29-7 24 0 50 9 50 9s-47-42-117-42z" horiz-adv-x="1000" />

<glyph glyph-name="info-outline" unicode="&#xe892;" d="M500 620c23 0 47-14 64-44l246-410c36-59 9-108-60-108h-500c-69 0-96 49-61 107l246 411c18 30 42 44 65 44m0 84c-54 0-103-31-136-85l-246-411c-18-30-28-62-28-93 0-23 6-46 18-66 27-47 78-74 142-74h500c64 0 115 27 142 74 12 21 18 44 18 69-1 29-10 60-28 90l-246 411c-33 54-82 85-136 85z m63-552c0 0-30-15-45-7-15 7-18 22-10 48l17 50c17 51-5 87-45 89-52 3-84-34-84-34s30 15 45 7c15-7 18-22 9-48l-17-51c-16-51 5-86 45-88 53-3 85 34 85 34z" horiz-adv-x="1000" />

<glyph glyph-name="input-checked" unicode="&#xe893;" d="M667 58h-334c-69 0-125 56-125 125v334c0 69 56 125 125 125h209c23 0 41-19 41-42s-18-42-41-42h-209c-23 0-41-18-41-41v-334c0-23 18-41 41-41h334c23 0 41 18 41 41v125c0 23 19 42 42 42s42-19 42-42v-125c0-69-56-125-125-125z m-118 174c-15 0-29 6-40 16l-111 111c-21 22-21 57 0 79 22 22 57 22 79 0l59-59 145 227c15 27 48 37 75 22 27-15 37-49 22-76l-181-291c-8-16-23-26-41-28l-7-1z" horiz-adv-x="1000" />

<glyph glyph-name="input-checked-outline" unicode="&#xe894;" d="M829 593c-10 32-31 58-60 75-18 10-39 15-61 15-35 0-69-15-92-41h-283c-69 0-125-56-125-125v-334c0-69 56-125 125-125h334c69 0 125 56 125 125v269l26 46c16 29 20 63 11 95z m-157-14c4 7 11 13 19 17 13 5 26 5 38-1 9-6 16-14 19-25 2-5 2-10 2-15-1-5-2-9-4-14l-1-2-167-293c-6-11-18-19-31-21l-5 0c-11 0-22 4-30 12l-125 125c-16 16-16 43 0 59 8 8 19 12 30 12s21-4 29-12l47-47 38-38 28 47 113 196z m-5-437h-334c-23 0-41 18-41 41v334c0 23 18 41 41 41h279l-89-154-47 47c-17 16-38 24-59 24s-43-8-59-24c-33-33-33-86 0-118l125-125c16-16 37-25 59-25l11 1c26 4 49 19 62 42l93 164v-207c0-23-18-41-41-41z" horiz-adv-x="1000" />

<glyph glyph-name="key" unicode="&#xe895;" d="M354 392c0-31 7-60 19-86l-165-164v-63s38-62 84-62h83v83h83v83h105c115 0 208 94 208 209s-93 208-208 208-209-93-209-208z m209-84c-46 0-84 38-84 84 0 46 38 83 84 83 46 0 83-37 83-83 0-46-37-84-83-84z" horiz-adv-x="1000" />

<glyph glyph-name="keyboard" unicode="&#xe896;" d="M333 308h292v-83h-292z m-125 0h84v-83h-84z m0 167h84v-42h-84z m125-125v42h-125v-42h84z m0 125h42v-42h-42z m42-83h42v-42h-42z m42 83h41v-42h-41z m41-83h42v-42h-42z m42 83h42v-42h-42z m42-83h41v-42h-41z m41 83h42v-42h-42z m42-83h42v-42h-42z m42 83h41v-42h-41z m41-125h84v125h-42v-83h-42z m42-42h-42v-41h-41v-42h125v42h-42z m83 292h-666c-46 0-84-37-84-83v-334c0-45 38-83 84-83h666c46 0 84 38 84 83v334c0 46-38 83-84 83z m0-417h-666v334h666v-334z" horiz-adv-x="1000" />

<glyph glyph-name="key-outline" unicode="&#xe897;" d="M417-25h-250v184l157 158c-7 24-11 49-11 75 0 138 112 250 250 250s250-112 250-250-113-250-250-250h-63v-84h-83v-83z m-167 83h83v84h84v83h146c91 0 166 75 166 167s-75 166-166 166-167-74-167-166c0-24 5-46 15-69l12-26-173-173v-66z m313 375c23 0 41-18 41-41 0-23-18-42-41-42s-42 19-42 42c0 23 19 41 42 41m0 42c-46 0-84-37-84-83 0-46 38-84 84-84 46 0 83 38 83 84 0 46-37 83-83 83z" horiz-adv-x="1000" />

<glyph glyph-name="leaf" unicode="&#xe898;" d="M833 392c0 204-145 379-346 416l-8 1-7-1c-201-37-347-212-347-416 0-193 130-359 313-409v-50c0-23 18-41 41-41s42 18 42 41v50c183 50 312 216 312 409z m-312-321v125l181 181c8 8 8 21 0 29s-21 9-29 0l-152-151v149l98 98c8 8 8 21 0 29s-21 9-29 0l-69-68v137c0 23-19 42-42 42s-41-19-41-42v-137l-69 68c-8 9-21 9-29 0s-9-21 0-29l98-98v-149l-152 151c-8 9-22 9-30 0s-8-21 0-29l182-181v-125c-136 46-230 174-230 321 0 161 114 300 271 332 158-32 271-171 271-332 0-147-94-275-229-321z" horiz-adv-x="1000" />

<glyph glyph-name="lightbulb" unicode="&#xe899;" d="M521 621c-12 0-21-9-21-21s9-21 21-21c45 0 82-36 82-82 0-11 9-20 21-20s20 9 20 20c0 68-55 124-123 124z m0 187c-172 0-313-140-313-312 0-62 19-122 53-174l4-5c76-109 89-143 89-175v-125c0-23 19-42 42-42h83c0-11 5-22 12-30 8-7 19-12 30-12 11 0 22 5 29 12 8 8 13 19 13 30h83c23 0 42 19 42 42v125c0 32 13 67 88 175 38 53 57 115 57 179 0 172-140 312-312 312z m83-750h-166v42h166v-42z m104 307c-61-88-89-138-99-182h-46v84c0 23-19 41-42 41s-42-18-42-41v-84h-46c-10 43-38 92-96 176l-3 6c-28 39-42 84-42 131 0 126 103 229 229 229s229-103 229-229c0-47-14-92-42-131z" horiz-adv-x="1000" />

<glyph glyph-name="link" unicode="&#xe89a;" d="M762 587c-18 18-47 18-65 0l-72-72-13 13c-48 48-134 48-182 0l-174-174c-25-24-38-57-38-91s13-67 38-92l13-13-72-71c-18-18-18-47 0-65 9-9 20-14 32-14s24 5 33 14l71 72 13-13c25-25 57-38 92-38s67 13 91 38l174 174c24 24 37 56 37 91s-13 67-37 91l-13 13 72 72c18 18 18 47 0 65z m-124-268l-174-173c-7-7-17-11-26-11s-20 4-27 11l-13 12 30 31c18 17 18 46 0 64-9 9-20 14-32 14s-24-5-33-14l-30-30-12 13c-7 7-11 17-11 27s4 19 11 26l173 174c7 7 17 11 27 11s19-4 26-11l13-13-30-30c-18-18-18-47 0-65 9-9 21-13 33-13s23 4 32 13l30 30 13-13c7-7 11-16 11-26s-4-20-11-27z" horiz-adv-x="1000" />

<glyph glyph-name="link-outline" unicode="&#xe89b;" d="M729 600c12 0 24-4 33-13 18-18 18-47 0-65l-72-72 13-13c24-24 37-57 37-91s-13-67-37-91l-174-174c-24-25-57-38-91-38s-67 13-92 38l-13 13-71-72c-9-9-21-14-33-14s-23 5-32 14c-18 18-18 47 0 65l72 71-13 13c-25 25-38 57-38 92s13 67 38 91l174 174c24 24 57 36 91 36s67-12 91-36l13-13 72 72c9 9 20 13 32 13m0 83c-34 0-67-13-91-37l-21-21c-29 15-62 23-96 23-57 0-112-23-150-61l-174-174c-40-40-62-94-62-150 0-35 8-68 23-97l-20-20c-24-25-38-57-38-92 0-34 13-67 38-91 24-25 57-38 91-38s67 13 91 38l20 20c30-15 63-23 97-23 57 0 111 22 151 62l174 174c40 40 62 93 62 150 0 34-8 67-24 97l20 20c25 24 38 57 38 91 0 35-13 67-37 92-25 24-57 37-92 37z m-254-298c1-23 10-43 26-59 15-16 36-25 59-26l-77-76c0 22-9 43-25 59-16 16-37 25-59 25l76 77m46 89c-10 0-20-4-27-11l-173-174c-7-7-11-16-11-26 0-10 4-20 11-27l12-13 31 30c8 9 20 14 32 14s23-5 32-14c18-18 18-47 0-64l-30-31 13-12c7-7 17-11 27-11s19 4 26 11l174 173c7 7 11 17 11 27 0 10-4 19-11 26l-13 13-30-30c-9-9-21-13-32-13s-24 4-33 13c-18 18-18 47 0 65l30 30-13 13c-7 7-16 11-26 11z" horiz-adv-x="1000" />

<glyph glyph-name="location" unicode="&#xe89c;" d="M736 629c-130 128-341 128-472 0-130-128-130-336 0-464l236-232 236 232c130 128 130 336 0 464z m-236-341c-28 0-54 10-74 30-40 41-40 107 0 147 20 20 46 31 74 31s54-11 74-31c40-40 40-106 0-147-20-20-46-30-74-30z" horiz-adv-x="1000" />

<glyph glyph-name="location-arrow" unicode="&#xe89d;" d="M432 54c15-44 42-45 62-3l221 474c19 41 1 59-40 40l-474-221c-42-20-41-47 3-62l171-57 57-171z" horiz-adv-x="1000" />

<glyph glyph-name="location-arrow-outline" unicode="&#xe89e;" d="M462-21c-15 0-51 6-69 62l-51 151-151 50c-52 18-61 49-62 67s5 49 54 72l474 222c43 20 80 12 98-15 9-15 16-41-2-81l-222-474c-22-47-53-54-69-54z m-225 336l171-57 57-171 199 427-427-199z" horiz-adv-x="1000" />

<glyph glyph-name="location-outline" unicode="&#xe89f;" d="M500 642c67 0 130-26 177-72 47-46 73-108 73-173s-26-126-73-172l-177-175-177 175c-47 46-73 107-73 172s26 127 73 173c47 46 110 72 177 72m0 83c-85 0-171-32-236-96-130-128-130-336 0-464l236-232 236 232c130 128 130 336 0 464-65 64-151 96-236 96z m0-229c28 0 54-11 74-31 40-40 40-106 0-147-20-20-46-30-74-30s-54 10-74 30c-40 41-40 107 0 147 20 20 46 31 74 31m0 42c-37 0-75-15-103-43-57-57-57-149 0-206 28-29 66-43 103-43s75 14 103 43c57 57 57 149 0 206-28 28-66 43-103 43z" horiz-adv-x="1000" />

<glyph glyph-name="lock-closed" unicode="&#xe8a0;" d="M708 433h-41v84c0 92-75 166-167 166s-167-74-167-166v-84h-41c-46 0-84-37-84-83v-292c0-46 38-83 84-83h416c46 0 84 37 84 83v292c0 46-38 83-84 83z m-208-345c-30 0-54 24-54 54s24 54 54 54 54-24 54-54-24-54-54-54z m83 304h-166v125c0 46 37 83 83 83s83-37 83-83v-125z" horiz-adv-x="1000" />

<glyph glyph-name="lock-closed-outline" unicode="&#xe8a1;" d="M708 433h-41v84c0 92-75 166-167 166s-167-74-167-166v-84h-41c-46 0-84-37-84-83v-292c0-46 38-83 84-83h416c46 0 84 37 84 83v292c0 46-38 83-84 83z m-291 84c0 46 37 83 83 83s83-37 83-83v-125h-166v125z m291-459h-416v292h417l-1-292z" horiz-adv-x="1000" />

<glyph glyph-name="lock-open" unicode="&#xe8a2;" d="M750 683c-92 0-167-74-167-166v-125h-166v41h-125c-46 0-84-37-84-83v-292c0-46 38-83 84-83h416c46 0 84 37 84 83v292c0 46-38 83-84 83h-41v84c0 46 37 83 83 83s83-37 83-83v-125c0-23 19-42 42-42s42 19 42 42v125c0 92-75 166-167 166z m-250-595c-30 0-54 24-54 54s24 54 54 54 54-24 54-54-24-54-54-54z" horiz-adv-x="1000" />

<glyph glyph-name="lock-open-outline" unicode="&#xe8a3;" d="M750 683c-92 0-167-74-167-166v-125h-166v41h-125c-46 0-84-37-84-83v-292c0-46 38-83 84-83h416c46 0 84 37 84 83v292c0 46-38 83-84 83h-41v84c0 46 37 83 83 83s83-37 83-83v-125c0-23 19-42 42-42s42 19 42 42v125c0 92-75 166-167 166z m-42-625h-416v292h417l-1-292z" horiz-adv-x="1000" />

<glyph glyph-name="mail" unicode="&#xe8a4;" d="M792 558h-584c-46 0-83-37-83-83v-375c0-46 37-83 83-83h584c46 0 83 37 83 83v375c0 46-37 83-83 83z m-404-304l67-59c13-11 29-16 45-16s32 5 45 16l67 59-2-2 152-152h-524l152 152-2 2z m-180-124v281l150-131-150-150z m434 150l150 131v-281l-150 150z m150 195v-9l-274-239c-10-9-26-9-36 0l-274 239v9h584z" horiz-adv-x="1000" />

<glyph glyph-name="map" unicode="&#xe8a5;" d="M849 722c-15 6-33 3-45-9l-161-161-179 143c-17 13-41 12-56-3l-187-187c-8-8-13-19-13-30v-417c0-16 11-32 26-38 5-2 11-3 16-3 11 0 22 4 30 12l161 161 179-143c16-13 40-12 55 3l188 187c8 8 12 19 12 30v416c0 17-10 32-26 39z m-557-563v299l125 125v-302c-3-2-125-122-125-122z m172 119l-6 3v311s165-130 167-131v-312l-161 129z m328 6l-125-125v301c3 2 125 123 125 123v-299z" horiz-adv-x="1000" />

<glyph glyph-name="media-eject" unicode="&#xe8a6;" d="M708 183h-416c-46 0-84-37-84-83 0-46 38-83 84-83h416c46 0 84 37 84 83 0 46-38 83-84 83z m60 225c-107 110-268 275-268 275s-161-165-268-275c-15-15-24-35-24-58 0-46 38-83 84-83h416c46 0 84 37 84 83 0 23-9 43-24 58z" horiz-adv-x="1000" />

<glyph glyph-name="media-eject-outline" unicode="&#xe8a7;" d="M667-25h-334c-69 0-125 56-125 125s56 125 125 125h334c69 0 125-56 125-125s-56-125-125-125z m-334 167c-23 0-41-19-41-42s18-42 41-42h334c23 0 41 19 41 42s-18 42-41 42h-334z m167 422l207-212 1-2-416 0 3 4 205 210m0 119s-161-165-268-275c-15-15-24-35-24-58 0-46 38-83 84-83h416c46 0 84 37 84 83 0 23-9 43-24 58-107 110-268 275-268 275z" horiz-adv-x="1000" />

<glyph glyph-name="media-fast-forward" unicode="&#xe8a8;" d="M627 562c-13 13-32 21-52 21-41 0-75-33-75-75v-375c0-41 34-75 75-75 20 0 39 9 52 22 99 96 248 241 248 241s-149 145-248 241z m-375 0c-13 13-32 21-52 21-41 0-75-33-75-75v-375c0-41 34-75 75-75 20 0 39 9 52 22 99 96 248 241 248 241s-149 145-248 241z" horiz-adv-x="1000" />

<glyph glyph-name="media-fast-forward-outline" unicode="&#xe8a9;" d="M583 489l173-168-173-168v336m-8 94c-41 0-75-33-75-75v-375c0-41 34-75 75-75 20 0 39 9 52 22 99 96 248 241 248 241s-149 145-248 241c-13 13-32 21-52 21z m-367-94l173-168-173-168v336m-8 94c-41 0-75-33-75-75v-375c0-41 34-75 75-75 20 0 39 9 52 22 99 96 248 241 248 241s-149 145-248 241c-13 13-32 21-52 21z" horiz-adv-x="1000" />

<glyph glyph-name="media-pause" unicode="&#xe8aa;" d="M333 600c-46 0-83-37-83-83v-334c0-46 37-83 83-83s84 37 84 83v334c0 46-38 83-84 83z m292 0c-46 0-83-37-83-83v-334c0-46 37-83 83-83s83 37 83 83v334c0 46-37 83-83 83z" horiz-adv-x="1000" />

<glyph glyph-name="media-pause-outline" unicode="&#xe8ab;" d="M333 17c-69 0-125 56-125 125v375c0 69 56 125 125 125s125-56 125-125v-375c0-69-56-125-125-125z m0 541c-23 0-41-18-41-41v-375c0-23 18-42 41-42s42 19 42 42v375c0 23-19 41-42 41z m292-541c-69 0-125 56-125 125v375c0 69 56 125 125 125s125-56 125-125v-375c0-69-56-125-125-125z m0 541c-23 0-42-18-42-41v-375c0-23 19-42 42-42s42 19 42 42v375c0 23-19 41-42 41z" horiz-adv-x="1000" />

<glyph glyph-name="media-play" unicode="&#xe8ac;" d="M433 82c110 107 275 268 275 268s-165 161-275 268c-15 15-35 24-58 24-46 0-83-38-83-84v-416c0-46 37-84 83-84 23 0 43 9 58 24z" horiz-adv-x="1000" />

<glyph glyph-name="media-play-outline" unicode="&#xe8ad;" d="M375 558l4-3 210-205-212-207-2-1 0 416m0 84c-46 0-83-38-83-84v-416c0-46 37-84 83-84 23 0 43 9 58 24 110 107 275 268 275 268s-165 161-275 268c-15 15-35 24-58 24z" horiz-adv-x="1000" />

<glyph glyph-name="media-play-reverse" unicode="&#xe8ae;" d="M583 58c46 0 84 38 84 84v416c0 46-38 84-84 84-20 0-41-9-58-25-108-104-275-267-275-267s167-162 275-267c17-16 38-25 58-25z" horiz-adv-x="1000" />

<glyph glyph-name="media-play-reverse-outline" unicode="&#xe8af;" d="M583 558v-416l-212 208 212 208m-58 59c-108-104-275-267-275-267s167-162 275-267c17-16 38-25 58-25 46 0 84 38 84 84v416c0 46-38 84-84 84-20 0-41-9-58-25z" horiz-adv-x="1000" />

<glyph glyph-name="media-record" unicode="&#xe8b0;" d="M750 350c0 69-28 132-73 177-45 45-108 73-177 73-69 0-131-28-177-73-45-45-73-108-73-177 0-69 28-131 73-177s108-73 177-73c69 0 132 28 177 73 45 46 73 108 73 177z" horiz-adv-x="1000" />

<glyph glyph-name="media-record-outline" unicode="&#xe8b1;" d="M500 517c92 0 167-75 167-167s-75-167-167-167-167 75-167 167 75 167 167 167m0 83c-138 0-250-112-250-250 0-138 112-250 250-250 138 0 250 112 250 250 0 138-112 250-250 250z" horiz-adv-x="1000" />

<glyph glyph-name="media-rewind" unicode="&#xe8b2;" d="M425 583c-20 0-39-8-52-21-99-96-248-241-248-241l248-241c13-13 32-22 52-22 41 0 75 34 75 75v375c0 42-34 75-75 75z m375 0c-20 0-39-8-52-21-99-96-248-241-248-241l248-241c13-13 32-22 52-22 41 0 75 34 75 75v375c0 42-34 75-75 75z" horiz-adv-x="1000" />

<glyph glyph-name="media-rewind-outline" unicode="&#xe8b3;" d="M417 489v-336l-172 168 172 168m8 94c-20 0-39-8-52-21-99-96-248-241-248-241l248-241c13-13 32-22 52-22 41 0 75 34 75 75v375c0 42-34 75-75 75z m367-94v-336l-172 168 172 168m8 94c-20 0-39-8-52-21-99-96-248-241-248-241l248-241c13-13 32-22 52-22 41 0 75 34 75 75v375c0 42-34 75-75 75z" horiz-adv-x="1000" />

<glyph glyph-name="media-stop" unicode="&#xe8b4;" d="M667 600h-334c-45 0-83-37-83-83v-334c0-45 38-83 83-83h334c46 0 83 38 83 83v334c0 46-37 83-83 83z" horiz-adv-x="1000" />

<glyph glyph-name="media-stop-outline" unicode="&#xe8b5;" d="M667 517v-334h-334v334h334m0 83h-334c-45 0-83-37-83-83v-334c0-45 38-83 83-83h334c46 0 83 38 83 83v334c0 46-37 83-83 83z" horiz-adv-x="1000" />

<glyph glyph-name="message" unicode="&#xe8b6;" d="M750 558c23 0 42-19 42-41v-292c0-23-19-42-42-42h-368l-7-7v7h-125c-23 0-42 19-42 42v292c0 22 19 41 42 41h500m0 84h-500c-69 0-125-57-125-125v-292c0-69 56-125 125-125h42v-125l125 125h333c69 0 125 56 125 125v292c0 68-56 125-125 125z" horiz-adv-x="1000" />

<glyph glyph-name="messages" unicode="&#xe8b7;" d="M875 558h-125c0 69-56 125-125 125h-500c-69 0-125-56-125-125v-291c0-69 56-125 125-125v-125l125 125c0-69 56-125 125-125h333l125-125v125h42c69 0 125 56 125 125v291c0 69-56 125-125 125z m-750-333c-23 0-42 19-42 42v291c0 23 19 42 42 42h500c23 0 42-19 42-42v-41h-271c-58 0-104-47-104-104v-188h-167z m792-83c0-23-19-42-42-42h-500c-23 0-42 19-42 42v271c0 34 28 62 63 62h479c23 0 42-19 42-42v-291z" horiz-adv-x="1000" />

<glyph glyph-name="message-typing" unicode="&#xe8b8;" d="M750 600h-542c-68 0-125-56-125-125v-292c0-68 57-125 125-125h42v-125l125 125h375c69 0 125 57 125 125v292c0 69-56 125-125 125z m42-417c0-22-19-41-42-41h-542c-22 0-41 19-41 41v292c0 23 19 42 41 42h542c23 0 42-19 42-42v-292z m-500 63c-46 0-84 37-84 83s38 84 84 84 83-38 83-84-37-83-83-83z m0 125c-23 0-42-19-42-42s19-41 42-41 41 18 41 41-18 42-41 42z m187-125c-46 0-83 37-83 83s37 84 83 84 84-38 84-84-38-83-84-83z m0 125c-23 0-41-19-41-42s18-41 41-41 42 18 42 41-19 42-42 42z m188-125c-46 0-84 37-84 83s38 84 84 84 83-38 83-84-37-83-83-83z m0 125c-23 0-42-19-42-42s19-41 42-41 41 18 41 41-18 42-41 42z" horiz-adv-x="1000" />

<glyph glyph-name="microphone" unicode="&#xe8b9;" d="M500 183c92 0 167 75 167 167v250c0 92-75 167-167 167s-167-75-167-167v-250c0-92 75-167 167-167z m292 167v83c0 23-19 42-42 42s-42-19-42-42v-83c0-115-93-208-208-208s-208 93-208 208v83c0 23-19 42-42 42s-42-19-42-42v-83c0-147 109-268 250-288v-45h-125c-23 0-41-19-41-42s18-42 41-42h334c23 0 41 19 41 42s-18 42-41 42h-125v45c141 20 250 141 250 288z" horiz-adv-x="1000" />

<glyph glyph-name="microphone-outline" unicode="&#xe8ba;" d="M500 183c-92 0-167 75-167 167v250c0 92 75 167 167 167s167-75 167-167v-250c0-92-75-167-167-167z m0 500c-46 0-83-37-83-83v-250c0-46 37-83 83-83s83 37 83 83v250c0 46-37 83-83 83z m292-333v83c0 23-19 42-42 42s-42-19-42-42v-83c0-115-93-208-208-208s-208 93-208 208v83c0 23-19 42-42 42s-42-19-42-42v-83c0-147 109-268 250-288v-45h-125c-23 0-41-19-41-42s18-42 41-42h334c23 0 41 19 41 42s-18 42-41 42h-125v45c141 20 250 141 250 288z" horiz-adv-x="1000" />

<glyph glyph-name="minus" unicode="&#xe8bb;" d="M750 392h-500c-46 0-83-38-83-84s37-83 83-83h500c46 0 83 37 83 83s-37 84-83 84z" horiz-adv-x="1000" />

<glyph glyph-name="minus-outline" unicode="&#xe8bc;" d="M750 183h-500c-69 0-125 56-125 125s56 125 125 125h500c69 0 125-56 125-125s-56-125-125-125z m-500 167c-23 0-42-19-42-42s19-41 42-41h500c23 0 42 18 42 41s-19 42-42 42h-500z" horiz-adv-x="1000" />

<glyph glyph-name="mortar-board" unicode="&#xe8bd;" d="M854 521s-241 121-287 146-71 29-125 0c-54-25-279-138-279-138-34-16-63-50-63-83s8-50 8-50-4-13-12-63c-13-50-13-112-13-137 0-63 55-108 92-113 38-4 67 5 67 5 58-55 154-88 266-88 184 0 325 92 325 208 0 46-16 113-16 113l46 25c37 21 54 58 54 96-4 33-25 62-63 79z m-341-433c-134 0-242 54-242 125l21 116 175-87c25-13 62-13 91 0l180 87 16-116c0-67-104-125-241-125z m304 337l-275-142c-17-8-42-8-59 0l-237 121c-8-21-13-50-13-83 0-58 9-100 9-121s-13-33-29-33h-5c-16 0-33 12-33 33s0 67 13 129c8 38 16 71 25 92l-9 4c-16 8-16 21 0 29l279 142c17 8 38 8 55 0s279-142 279-142c16-8 16-21 0-29z" horiz-adv-x="1000" />

<glyph glyph-name="news" unicode="&#xe8be;" d="M875 683h-750c-46 0-83-37-83-83v-500c0-46 37-83 83-83h750c46 0 83 37 83 83v500c0 46-37 83-83 83z m-750-83h333v-500h-333v500z m750-500h-375v500h375l0-500z m-42 188c0 11-9 20-20 20h-42c-12 0-21-9-21-20v-125c0-12 9-21 21-21h42c11 0 20 9 20 21v125z m-125 250c0 11-9 20-20 20h-125c-12 0-21-9-21-20v-209c0-11 9-21 21-21h125c11 0 20 10 20 21v209z m63-105h42c11 0 20 10 20 21s-9 21-20 21h-42c-12 0-21-9-21-21s9-21 21-21z m0-83h42c11 0 20 9 20 21s-9 21-20 21h-42c-12 0-21-10-21-21s9-21 21-21z m-208-125h125c11 0 20 9 20 21s-9 21-20 21h-125c-12 0-21-10-21-21s9-21 21-21z m125-42h-125c-12 0-21-9-21-20s9-21 21-21h125c11 0 20 9 20 21s-9 20-20 20z m83 334h42c11 0 20 9 20 21s-9 20-20 20h-42c-12 0-21-9-21-20s9-21 21-21z m-354 21c0 11-10 20-21 20h-208c-12 0-21-9-21-20v-125c0-12 9-21 21-21h208c11 0 21 9 21 21v125z m-21-271h-208c-12 0-21-10-21-21s9-21 21-21h208c11 0 21 9 21 21s-10 21-21 21z m0 83h-208c-12 0-21-9-21-21s9-21 21-21h208c11 0 21 10 21 21s-10 21-21 21z m0-167h-208c-12 0-21-9-21-20s9-21 21-21h208c11 0 21 9 21 21s-10 20-21 20z" horiz-adv-x="1000" />

<glyph glyph-name="notes" unicode="&#xe8bf;" d="M785 681c-5 4-10 6-17 5l-458-52c-10-1-18-10-18-21v-430c-69 0-125-46-125-104s56-104 125-104 125 47 125 104v317l250 26v-155c-69 0-125-47-125-104s56-105 125-105 125 47 125 105v502c0 6-3 12-7 16z" horiz-adv-x="1000" />

<glyph glyph-name="notes-outline" unicode="&#xe8c0;" d="M764 668c-16 14-35 21-56 21l-10-1-375-52c-42-5-73-40-73-82v-255c-73-23-125-85-125-157 0-92 84-167 188-167 70 0 132 35 164 87 33-28 78-45 127-45 104 0 188 75 188 166v423c0 24-11 46-28 62z m-306-485v178l125 18v-72c-70-9-125-61-125-124z m250 0c0-46-46-83-104-83s-104 37-104 83 47 84 104 84c7 0 14-1 21-2v163l-208-31v-255c0-46-47-84-104-84s-105 38-105 84 47 83 105 83c7 0 14-1 20-2v331l375 52v-423z" horiz-adv-x="1000" />

<glyph glyph-name="pen" unicode="&#xe8c1;" d="M889 550c0 50-20 98-56 133s-83 56-133 56c-50 0-97-20-133-55-1-1-332-331-332-331-15-16-30-38-40-63-8-20-82-245-97-290-5-15-1-31 10-42 8-8 18-12 29-12 5 0 9 0 13 2 45 14 270 89 289 97 26 10 48 25 64 40l89 90 4 0c26 0 53 10 73 30l188 188c29 29 37 71 24 107 5 16 8 33 8 50z m-495-433c-16-6-47-16-84-28l-71 71c12 37 22 68 28 84l127-127z m-170-2l41-41-62-21 21 62z m320 130l-100-101-10-7-147 147 7 10 297 297 114-114-154-154c-21-21-22-54-7-78z m254 207l-188-188c-4-4-9-6-14-6s-11 2-15 6c-8 8-8 22 0 30l187 187c8 8 22 8 30 0 8-8 8-21 0-29z m4 73c-21 7-46 3-63-14l-4-5-114 114 3 3c41 41 111 41 150 1 20-20 31-46 31-74 0-9-1-17-3-25z" horiz-adv-x="1000" />

<glyph glyph-name="pencil" unicode="&#xe8c2;" d="M875 563l-162 162c-12 12-28 18-44 18-16 0-32-6-44-18l-456-456c-12-12-23-30-31-49-8-20-13-40-13-57v-188h188c17 0 37 5 57 13 19 8 37 19 49 31l456 456c12 12 18 28 18 44 0 16-6 32-18 44z m-635-340l346 345 51-51-345-346-52 52z m73-165h-63l-42 42v63c0 3 2 12 7 25 0 1 124-123 124-123-14-5-23-7-26-7z m60 32l-52 52 346 345 51-51-345-346z m375 375l-133 133 54 53 132-132-53-54z" horiz-adv-x="1000" />

<glyph glyph-name="phone" unicode="&#xe8c3;" d="M557 555l155 155-18 18c-24 23-65 23-89 0l-66-66c-12-12-18-28-18-45s6-32 18-44l18-18z m-280-244c-24 24-65 24-88 0l-66-66c-12-12-19-28-19-44s7-33 19-45l18-18 154 155-18 18z m491 342l-14 15-155-155 27-27c4-4 6-9 6-15s-2-10-6-14l-233-233c-8-8-21-8-29 0l-27 27-154-155 14-14c11-11 52-46 128-46 67 0 177 29 318 171 283 282 132 439 125 446z" horiz-adv-x="1000" />

<glyph glyph-name="phone-outline" unicode="&#xe8c4;" d="M813 697l-75 75c-24 23-55 36-89 36s-64-13-88-36l-66-66c-49-49-49-128 0-177l57-58-173-173-58 57c-23 24-55 37-88 37s-65-13-89-37l-66-66c-48-49-48-128 0-177l75-74c19-20 75-65 172-65 115 0 237 64 363 190 260 260 201 458 125 534z m-259-50l66 66c8 8 19 12 29 12s22-4 30-12l45-45-125-125-45 45c-16 16-16 42 0 59z m-417-476c-16 16-16 43 0 59l66 66c8 8 19 12 30 12s21-4 29-12l45-45-125-125-45 45z m492 50c-129-128-232-164-304-164-57 0-95 21-113 39 0 1 125 126 125 126l12-13c8-8 19-12 30-12s21 4 29 12l233 233c16 16 16 43 0 59l-13 12 126 125c41-42 102-189-125-417z" horiz-adv-x="1000" />

<glyph glyph-name="pi" unicode="&#xe8c5;" d="M780 494c-17 17-43 17-59 0-53-52-139-52-191 0-86 86-224 86-309 0-17-16-17-42 0-58s42-17 59 0c15 15 34 26 53 32v-326c0-23 19-42 42-42s42 19 42 42v326c19-7 38-17 54-32 32-32 71-52 112-60v-234c0-23 19-42 42-42s42 19 42 42v234c41 8 81 28 113 60 16 16 16 42 0 58z" horiz-adv-x="1000" />

<glyph glyph-name="pin" unicode="&#xe8c6;" d="M697 672c-16 16-42 16-59 0-4-4-7-9-9-15-35-72-73-113-121-137-54-26-116-45-216-45-6 0-11-1-16-3-10-4-18-12-23-23-4-10-4-21 0-31 2-6 5-10 9-14l135-135-189-252 252 189 136-135c3-4 8-7 13-9 5-2 11-4 16-4s11 2 16 4c10 4 18 12 23 22 2 5 3 11 3 16 0 100 18 162 45 215 24 48 65 87 137 121 5 2 11 5 15 10 16 16 16 42 0 59l-167 167z" horiz-adv-x="1000" />

<glyph glyph-name="pin-outline" unicode="&#xe8c7;" d="M893 534l-166 167c-32 32-86 32-118 1-8-8-15-18-18-26-27-57-56-93-94-114l-9-4c-40-21-95-41-196-41-11 0-22-2-32-7-20-8-37-24-45-45-9-20-9-43 0-63 4-11 10-20 18-27l135-135-160-223 223 159 135-134c8-8 17-15 27-19 10-4 21-6 32-6s22 2 32 6c21 9 37 25 45 45 4 10 6 21 6 32 0 102 21 156 41 197 21 41 57 73 115 100 11 5 21 11 30 19 32 33 32 86-1 118z m-218-200c-35-69-50-140-50-234l-333 333c89 0 159 14 225 46l9 4c59 29 103 79 142 160l163-169c-78-37-127-82-156-140z" horiz-adv-x="1000" />

<glyph glyph-name="pi-outline" unicode="&#xe8c8;" d="M838 553c-23 24-55 37-88 37s-65-13-88-37c-10-9-23-15-37-15s-27 6-37 15c-56 57-132 89-213 89s-156-32-213-89c-24-23-37-55-37-88s13-65 37-88c23-24 55-37 88-37v-198c0-69 56-125 125-125s125 56 125 125c0-69 56-125 125-125s125 56 125 125v173c33 15 63 36 88 62 24 23 37 55 37 88s-13 65-37 88z m-58-117c-32-32-72-52-113-60v-234c0-23-19-42-42-42s-42 19-42 42v234c-41 8-80 28-112 60-16 15-35 25-54 32v-326c0-23-19-42-42-42s-42 19-42 42v326c-19-6-38-17-53-32-9-9-19-13-30-13s-21 4-29 13c-17 16-17 42 0 58 42 43 98 64 154 64s112-21 155-64c26-26 60-39 95-39 35 0 69 13 96 39 8 9 18 13 29 13s21-4 30-13c16-16 16-42 0-58z" horiz-adv-x="1000" />

<glyph glyph-name="pipette" unicode="&#xe8c9;" d="M891 545c3 50-15 99-48 132-30 31-74 48-121 48-49 0-92-19-118-52-29-37-58-109-73-152l-68 68c-16 16-42 16-59 0-16-17-16-43 0-59l13-12-218-218c-16-16-30-38-41-64-1-1-72-180-4-248 22-22 56-29 91-29 74 0 156 32 158 33 25 10 47 25 63 40l218 218 12-12c8-8 19-12 29-12s22 4 30 12c16 16 16 43 0 59l-67 67c42 16 115 45 152 74 30 23 48 62 51 107z m-678-498c-10 12-4 63 7 107l101-101c-45-10-95-16-108-6z m194 44c-8-8-21-16-36-22l-5-2-133 133 2 5c6 14 15 28 22 36l218 218 150-150-218-218z" horiz-adv-x="1000" />

<glyph glyph-name="plane" unicode="&#xe8ca;" d="M833 287l-250 143v248c0 35-28 63-62 63s-63-28-63-63v-248l-249-143c-19-10-26-33-18-52 8-19 29-30 50-24l217 62v-185l-67-54c-16-13-21-36-10-54s32-25 51-18l89 36 89-36c5-2 10-3 15-3 15 0 28 8 36 21 10 18 6 41-10 54l-68 54v185l218-62 12-2c16 0 31 10 38 26 8 19 1 42-18 52z m-312 381c-12 0-21 9-21 21s9 20 21 20 21-9 21-20-10-21-21-21z" horiz-adv-x="1000" />

<glyph glyph-name="plane-outline" unicode="&#xe8cb;" d="M875 334l-208 118v200c0 81-66 146-146 146s-146-65-146-146v-200l-208-118c-55-32-77-99-53-157 25-59 89-89 150-72l111 32v-35l-36-29c-50-40-62-112-28-165 35-54 104-73 162-45 0 0 20 8 48 8l48-8c57-28 127-9 161 45 35 53 23 125-27 165l-36 29v35l111-32c61-17 125 13 150 72s1 125-53 157z m-24-125c-8-20-30-30-50-24l-218 62v-185l68-54c17-14 21-38 9-56-11-17-34-24-54-14 0 0-34 16-85 16s-85-16-86-16c-19-10-42-3-53 14-12 18-8 42 9 56l67 54v185l-217-62c-21-6-42 4-50 24-8 19-1 42 18 52l249 143v248c0 35 28 63 63 63s62-28 62-63v-248l250-143c19-10 26-33 18-52z" horiz-adv-x="1000" />

<glyph glyph-name="plug" unicode="&#xe8cc;" d="M750 600h-42v125c0 25-16 42-41 42h-84c-25 0-41-17-41-42v-125h-84v125c0 25-16 42-41 42h-84c-25 0-41-17-41-42v-125h-42c-25 0-42-17-42-42v-166c0-4 0-4 0-9 9-104 75-191 167-233v-133c0-46 38-84 83-84h84c46 0 83 38 83 84v133c92 42 154 129 167 233 0 5 0 5 0 9v166c0 25-17 42-42 42z m-167 125h84v-125h-84v125z m-250 0h84v-125h-84v125z m209-708h-84v83h84v-83z m-42 187c-92 0-171 63-196 146h396c-29-83-108-146-200-146z m208 209c0-9 0-13-4-21h-408c-4 8-4 12-4 21v104h416v-104z" horiz-adv-x="1000" />

<glyph glyph-name="plus" unicode="&#xe8cd;" d="M750 433h-167v167c0 46-37 83-83 83s-83-37-83-83l3-167h-170c-46 0-83-37-83-83s37-83 83-83l170 3-3-170c0-46 37-83 83-83s83 37 83 83v170l167-3c46 0 83 37 83 83s-37 83-83 83z" horiz-adv-x="1000" />

<glyph glyph-name="plus-outline" unicode="&#xe8ce;" d="M500-25c-69 0-125 56-125 125l2 127-126-2c-70 0-126 56-126 125s56 125 125 125l127 2-2 122c0 70 56 126 125 126s125-56 125-125l2-123 124-2c68 0 124-56 124-125s-56-125-125-125l-123 2-2-128c0-68-56-124-125-124z m-42 333v-209c0-22 19-41 42-41s42 19 42 42v208h209c22 0 41 19 41 42s-19 42-42 42h-208v208c0 24-19 42-42 42s-42-19-42-42v-208h-208c-24 0-42-19-42-42s19-42 42-42h208z" horiz-adv-x="1000" />

<glyph glyph-name="point-of-interest" unicode="&#xe8cf;" d="M688 392c80 0 145 65 145 146s-65 145-145 145-146-65-146-145v-63h-84v63c0 80-65 145-145 145s-146-65-146-145 65-146 146-146h62v-84h-62c-81 0-146-65-146-145s65-146 146-146 145 65 145 146v62h84v-62c0-81 65-146 146-146s145 65 145 146-65 145-145 145h-63v84h63z m-63 146c0 34 28 62 63 62s62-28 62-62c0-35-28-63-62-63h-63v63z m-250-375c0-35-28-63-62-63s-63 28-63 63c0 34 28 62 63 62h62v-62z m0 312h-62c-35 0-63 28-63 63 0 34 28 62 63 62s62-28 62-62v-63z m167-167h-84v84h84v-84z m146-83c34 0 62-28 62-62 0-35-28-63-62-63s-63 28-63 63v62h63z" horiz-adv-x="1000" />

<glyph glyph-name="point-of-interest-outline" unicode="&#xe8d0;" d="M688 683c80 0 145-65 145-145s-65-146-145-146h-63v-84h63c80 0 145-65 145-145s-65-146-145-146-146 65-146 146v62h-84v-62c0-81-65-146-145-146s-146 65-146 146 65 145 146 145h62v84h-62c-81 0-146 65-146 146s65 145 146 145 145-65 145-145v-63h84v63c0 80 65 145 146 145m-63-208h63c34 0 62 28 62 63 0 34-28 62-62 62s-63-28-63-62v-63m-312 0h62v63c0 34-28 62-62 62s-63-28-63-62c0-35 28-63 63-63m375-375c34 0 62 28 62 63 0 34-28 62-62 62h-63v-62c0-35 28-63 63-63m-375 0c34 0 62 28 62 63v62h-62c-35 0-63-28-63-62 0-35 28-63 63-63m375 667c-78 0-146-39-188-98-41 59-110 98-187 98-127 0-230-103-230-229 0-78 39-146 98-188-59-41-98-110-98-187 0-127 103-230 230-230 77 0 146 39 187 98 42-59 110-98 188-98 126 0 229 103 229 230 0 77-39 146-98 187 59 42 98 110 98 188 0 126-103 229-229 229z m-146-375h-84v-84h84z" horiz-adv-x="1000" />

<glyph glyph-name="power" unicode="&#xe8d1;" d="M479 76c-72 0-140 28-191 79-51 52-80 120-80 192s29 140 80 192c16 16 42 16 59 0s16-43 0-59c-36-36-55-83-55-133s19-97 55-133c35-35 82-54 132-54s97 19 133 54c35 36 55 83 55 133s-20 97-55 133c-16 16-16 42 0 59s42 16 59 0c51-52 79-120 79-192s-28-140-79-192c-51-51-119-79-192-79z m0 316c-23 0-41 18-41 41v209c0 23 18 41 41 41s42-18 42-41v-209c0-23-19-41-42-41z" horiz-adv-x="1000" />

<glyph glyph-name="power-outline" unicode="&#xe8d2;" d="M730 597c-34 34-83 44-126 31v14c0 69-56 125-125 125s-125-56-125-125v-14c-43 13-91 3-125-31-67-66-104-155-104-250s37-184 104-250c67-67 156-104 250-104s184 37 251 104c67 66 103 155 103 250s-36 184-103 250z m-292 45c0 23 18 41 41 41s42-18 42-41v-209c0-23-19-41-42-41s-41 18-41 41v209z m-42-159v-50c0-46 37-83 83-83s84 37 84 83v50c4-12 10-23 19-33 28-27 43-64 43-103s-15-76-43-103c-55-55-151-55-206 0-27 27-43 64-43 103s16 76 43 103c10 10 16 21 20 33z m275-328c-51-51-119-79-192-79s-140 28-191 79c-51 52-80 120-80 192s29 140 80 192c16 16 42 16 59 0s16-43 0-59c-36-36-55-83-55-133s19-97 55-133c35-35 82-54 132-54s97 19 133 54c35 36 55 83 55 133s-20 97-55 133c-16 16-16 42 0 59s42 16 59 0c51-52 79-120 79-192s-28-140-79-192z" horiz-adv-x="1000" />

<glyph glyph-name="printer" unicode="&#xe8d3;" d="M708 642v83c0 23-18 42-41 42h-375c-23 0-42-19-42-42v-83c-69 0-125-56-125-125v-417c0-69 56-125 125-125h458c69 0 125 56 125 125v417c0 69-56 125-125 125z m-375 41h292v-208h-292v208z m-83-125v-125c0-23 19-41 42-41h375c23 0 41 18 41 41v125c23 0 42-18 42-41v-104c0-35-28-63-62-63h-417c-35 0-63 28-63 63v104c0 23 19 41 42 41z m458-500h-458c-23 0-42 19-42 42v230c18-13 39-22 63-22h417c23 0 45 9 62 22v-230c0-23-19-42-42-42z m-145 500h-167c-12 0-21-9-21-20s9-21 21-21h167c11 0 20 9 20 21s-9 20-20 20z m62-375h-292c-11 0-20-9-20-20s9-21 20-21h292c12 0 21 9 21 21s-9 20-21 20z m-62 459h-167c-12 0-21-10-21-21s9-21 21-21h167c11 0 20 9 20 21s-9 21-20 21z" horiz-adv-x="1000" />

<glyph glyph-name="puzzle" unicode="&#xe8d4;" d="M677 381c15 0 29-6 41-16 23-14 32 1 32 16v73c0 35-28 63-62 63h-115c-15 0-30 9-16 32 10 11 16 25 16 41 0 40-42 73-94 73s-94-33-94-73c0-13 4-24 11-35 21-28 6-38-11-38h-114c-34 0-63-28-63-63v-73c0-16 11-31 39-10 10 6 22 10 34 10 41 0 73-42 73-93s-32-94-73-94c-15 0-29 6-41 16-23 14-32-1-32-16v-115c0-34 29-62 63-62h114c17 0 32 10 11 38-7 11-11 22-11 35 0 40 42 73 94 73s94-33 94-73c0-16-6-30-16-41-14-23 1-32 16-32h115c34 0 62 28 62 62v115c0 16-11 32-39 10-10-6-21-10-34-10-40 0-73 42-73 94s33 93 73 93z" horiz-adv-x="1000" />

</font>
</defs>
</svg>
